<svg  version="1.1" xmlns="&ns_svg;" xmlns:xlink="&ns_xlink;" xmlns:a="http://ns.adobe.com/AdobeSVGViewerExtensions/3.0/"
	 width="286" height="228" viewBox="0 0 120 120" enable-background="new -0.3 -0.1 286 228" xml:space="preserve">
<defs>
	<symbol  id="wxl_23" viewBox="-142.7 -113.9 285.4 227.8">
		<g>
			<path fill="#B9B9FF" d="M-21.7,109.9l21.2,4l21-3.8v-1.5l0.7-0.2l22.1-4l16.4-10.3l3.8-3c0.3-2.8,0.8-4.3,1.5-4.5l18.8-11.8
				l10.5-16c7.8-15.1,4-36.4-11.5-63.9l-6.3-8l-16,1.4L33.3,3.6L-0.8,8.9l-33.7-5.8l-26.5-15l-7.2-9.3l-8.8,8.8
				c-2.9,7.7-6.7,13.8-11.5,18.5l-3,9.7l-4.2,8.3l-1,7.3l-1.8,8.2l1.5,14l13,21.2l20.7,16.5l20,13.1l21,5.4h0.1L-21.7,109.9
				 M-29.3-109.7l10-0.7l0.8-0.2h0.3l19.4-2.5l17,2.5h0.3l0.8,0.2l10,0.7l-29-4.2L-29.3-109.7"/>
			<path fill="#353582" d="M20.5,110.1l20.3-3.7l32.4-20.3l8.3-6.3l15.7-24l5.5-8.5l5.7-11.2L111,9.4l-3.7-13.5l-7.8-12L87.7-26.7
				L85-28.6l-8.3-4.8l-10-4.7l-27.5-8.3c-35.9-6.9-71.1-4.1-105.7,8.3L-78-32.6l-8.7,5.2l-12.8,11.3l-8.2,12.9l-1.8,8l-0.5,0.5v2
				l-1,2.5l0.7,7.3l0.1,0.3l2,19.2l5,9.7l4.7,7.3l0.3,0.5l0.7,1.2l0.2,0.1v0.2l15.6,24l6.2,4.8l34.2,21.9l19,3.5l-21-5.4l-20-13.1
				L-84,74.8l-13-21.2l-1.5-14l1.8-8.2l1-7.3l4.2-8.3l3-9.7c4.8-4.7,8.6-10.8,11.5-18.5l8.8-8.8l7.2,9.3l26.5,15l33.7,5.8l34.1-5.3
				l27.2-15.3l16-1.4l6.3,8c15.5,27.4,19.3,48.7,11.5,63.9l-10.5,16L65,86.6c-0.7,0.2-1.2,1.7-1.5,4.5l-3.8,3l-16.4,10.3l-22.1,4
				l-0.7,0.2V110.1 M-18.2-110.6l17.9-1.3l18.5,1.3l-17-2.5L-18.2-110.6"/>
			<path fill="#070707" d="M-97.3,55.6v-0.2l-0.2-0.1l-0.7-1.2l-0.3-0.5l-4.7-7.3l-5-9.7l-2-19.2l-0.1-0.3l-0.7-7.3l1-2.5v-2
				l0.5-0.5l1.8-8l8.2-12.9l12.8-11.3l8.7-5.2l11.5-5.5c34.5-12.4,69.8-15.2,105.7-8.3l27.5,8.3l10,4.7l8.3,4.8l2.7,1.9l11.8,10.6
				l7.8,12L111,9.4l-2.7,26.7l-5.7,11.2l-5.5,8.5l3.7-1.9l14.5-10.6l11.3-12.5l4-6l7.8-14.5l0.7-1.4l2-10.5l1-5.5l0.5-7v-3.3
				L140-34.1l-12.5-24.6l-15.7-16.7l-26.3-17L61-102.6l-29.3-6.8l-0.5-0.2h-0.5l-0.9-0.1h-0.5l-10-0.7l-0.8-0.2h-0.3l-18.5-1.3
				l-17.9,1.3h-0.3l-0.8,0.2l-10,0.7h-0.5H-30l-0.7,0.1h-0.6l-0.4,0.2l-28.5,6.5l-24.3,10l-23.8,15.2l-3.5,2.3l-14.9,15.5
				l-13.1,25.5l-2.9,17.2l0.5,9.8l3,16.2l7.9,15l4.3,6.6l11.2,12.4l12,9l3,2.1L-97.3,55.6 M-85.2-52.7l24.2-9.2h1.3l15.7,3.3
				c1.3,3.2,1.7,5.1,1.2,5.5l-12.5,2.4l-22.5,8.5l-2,0.3l-12.7,1.2l-3.8-5L-85.2-52.7 M45.5-65.2L61-61.9l25,9.7l6.3,11.3L92-40.2
				l-4.7,3.3l-9-5.3l-23.6-8.7L44-58.6L45.5-65.2"/>
			<path fill="#F0F0F0" d="M-85.2-52.7l-11.1,7l3.8,5l12.7-1.2l2-0.3l22.5-8.5l12.5-2.4c0.6-0.4,0.2-2.3-1.2-5.5l-15.7-3.3H-61
				L-85.2-52.7 M45.5-65.2L44-58.6l10.7,7.7l23.6,8.7l9,5.3l4.7-3.3l0.3-0.7L86-52.2l-25-9.7L45.5-65.2"/>
			<path fill="#090909" d="M-31.5-109.6l-0.2,0.2l0.4-0.2H-31.5"/>
		</g>
	</symbol>
</defs>
<use xlink:href="#新符号_23"  width="285.4" height="227.8" x="-142.7" y="-113.9" transform="matrix(1 0 0 -1 142.6753 113.9248)"/>
</svg>
