<?xml version="1.0" encoding="utf-8"?>
<!-- Generator: Adobe Illustrator 12.0.0, SVG Export Plug-In  -->
<!DOCTYPE svg PUBLIC "-//W3C//DTD SVG 1.1//EN" "http://www.w3.org/Graphics/SVG/1.1/DTD/svg11.dtd" [
	<!ENTITY ns_flows "http://ns.adobe.com/Flows/1.0/">
	<!ENTITY ns_svg "http://www.w3.org/2000/svg">
	<!ENTITY ns_xlink "http://www.w3.org/1999/xlink">
]>
<svg  version="1.1" xmlns="&ns_svg;" xmlns:xlink="&ns_xlink;" xmlns:a="http://ns.adobe.com/AdobeSVGViewerExtensions/3.0/"
	 width="262" height="170" viewBox="-0.2 -0.4 262 170" enable-background="new -0.2 -0.4 262 170" xml:space="preserve">
<defs>
	<symbol  id="新符号_11" viewBox="-130.8 -84.6 261.6 169.2">
		<g>
			<path fill="#BABAD3" d="M-64.2,84.6l2.5-0.2l0.4-0.5h-2.2L-64.2,84.6 M-60.5,54.6l-0.2-1.8l-0.5-1.4l-2.1-0.1
				c0.5,1,0.8,2,0.8,3.1L-60.5,54.6 M-108.4-23.4l1.1-0.3l2-2.9l-2.6-0.1l-0.7-0.5l2.5-4c1-1.8,1.1-3,0.3-3.5l-1.3,4.5l-0.7,0.6
				l-0.8,1.2l-2.7,4l-0.8,0.5L-108.4-23.4 M-98.5-44.4l0.3-3.3l0.2-0.5l0.2-0.7l0.1-0.5l0.2-2.7l0.2-0.8l-4.2-0.8l-0.5,4.1l-0.2,0.4
				l-0.1,0.8l-0.2,0.8v0.9l-0.3,1.6L-98.5-44.4"/>
			<path fill="#767687" d="M-64.2,84.6l0.7-0.7l0.3-0.6l0.2-1.4l0.5-0.1l0.5-6.2c-1.2,5.7-2.7,6.2-4.5,1.5l1.2,6.2L-64.2,84.6"/>
			<path fill="#D7D7E8" d="M-63.5,83.9h2.2l0.5-0.6h-2.4L-63.5,83.9 M-62,57.3h2v-0.9l-0.5-1.8l-2-0.2l0.3,1.7L-62,57.3"/>
			<path fill="#FBFBFF" d="M-63.2,83.3h2.4l1-4.4l0.5-6.6v-7.9l-0.7-7.1h-2l0.3,11.8l-0.3,6.5l-0.5,6.2l-0.5,0.1L-63.2,83.3"/>
			<path fill="#747485" d="M-66.5,77.1c1.8,4.7,3.3,4.2,4.5-1.5l0.3-6.5c-1.5,2.1-3.3,2.8-5.3,1.8L-66.5,77.1"/>
			<path fill="#727283" d="M-67,70.9c2,0.9,3.8,0.3,5.3-1.8L-62,57.3l-0.2-1.2c0.1,3.8-0.7,4.3-2.5,1.5l-0.8,3.2l-1.3-3L-67,70.9"/>
			<path fill="#007400" d="M-27.2,65.9l0.2-0.3l5,0.2l2.5-1.9l-5.2-0.1l-0.8,0.5H-27l-0.7,0.5l-1.6,1.3L-27.2,65.9 M-17.5,26.9h5.8
				v-0.1l-0.1-0.9l-0.2-1.8l-0.7-1l-0.8-1.7l-6-0.5l-1.3-0.1H-21l0.5,0.5l0.3,1.6l0.7,1.5l0.5,2.4L-17.5,26.9 M107.1,1.3
				c5.6-6.9,8.2-16,8-27.2l-0.7-5.7l-2.2-7.5l-1.3-2l-4-5l-3.8-2l-0.4-0.1l-0.6-0.2h-0.4l-0.8-0.2l-0.3-0.1h-1L96-48.6l-1.5,0.7
				c9.2,0.3,15,4.5,17.5,12.3l1.3,4.9l0.7,3.8l-0.2,6.8c-0.2,7-2.6,13.6-7.3,19.9l-1.2,1.3l0.9,1.2L107.1,1.3"/>
			<path fill="#005200" d="M-27.2,65.9l0.5,0.5l4.9,0.2l2.5-1.8l2.6-2.5l1.5-3.2l2-4.2l-2,3.5l-2.1,3.9l-2.2,1.6l-2.5,1.9l-5-0.2
				L-27.2,65.9"/>
			<path fill="#004F00" d="M-34,65.3l-0.8-0.4l-0.4-0.1l1,1.1l4.9,0.2l1.6-1.3l-4.3,1.1l-1.3-0.5L-34,65.3 M-17.4,64.3l-0.7,0.5
				l26.7-6.7L-17.4,64.3 M-25.4,62.6h0.5l0.5-1L-25.4,62.6 M-12.2,20.9l11.4,3.5l14,5.2c-1.2-2-2.5-3.1-3.7-3.3l-24-9.2l1,0.8
				l0.7,1.9L-12.2,20.9 M-22.2,18.4l-0.3-1.1h-0.7L-22.2,18.4 M-25.5,15.1v-0.5l-1.3-0.8l-4.5,0.5l-1,0.8l2.8-0.8l2.5,0.1
				L-25.5,15.1"/>
			<path fill="#004000" d="M-34,65.3l0.7,0.1l-1.5-0.8l-0.4-0.2h-0.5l0.5,0.4l0.4,0.1L-34,65.3 M-20.2,22.9l-0.3-1.6l-0.5-0.5h0.2
				l-1.4-2.4l-1-1.1l-1.5-0.2l-0.6-0.8l-0.2-1.2l-1.5-0.7l-2.5-0.1l-2.8,0.8c2.9-1,5.7,1.8,8.5,8.3L-20.2,22.9"/>
			<path fill="#006500" d="M-21.9,66.6h1.5l2.3-1.8h-1.3L-21.9,66.6 M-11.2,23.3l-1-2.4l-0.6-1.1l-1.5-0.2l0.8,1.8l0.8,1.7
				L-11.2,23.3"/>
			<path fill="#006B00" d="M-33.4,65.4l1.3,0.5l4.3-1.1l0.7-0.5l1.3-1.4l-3.3-1.1l-3,2.3l-2.8,0.5L-33.4,65.4 M-22.7,27.4l3.7-0.6
				l-0.5-2.4l-0.7-1.5l-3.6,0.5L-22.7,27.4"/>
			<path fill="#007F00" d="M-19.4,64.8h1.3l0.7-0.5l1.8-1.5l1.5-2.9l0.3-0.8h-1.5l-1.5,3.2L-19.4,64.8 M-9.5,29.9l-0.3-1.8l-0.2-3
				l-0.7-0.8l-0.5-1l-1.5-0.2l0.7,1l0.2,1.8l0.1,0.9v0.1l0.2,0.9l0.3,2L-9.5,29.9"/>
			<path fill="#004E00" d="M-34.9,64.6l2.8-0.5l3-2.3l2-2.7c4.8-10.2,6.4-19.3,5-27.2l-0.7-4.5l-1.1-4c-2.8-6.6-5.6-9.3-8.5-8.3
				l-2.5,1c-2.6,2.2-3.9,3.7-3.9,4.3l11.5,1l1.2,30l-13.5,5.9h-2.3l1.8,3.8c0.3,1,1.5,2,3.5,3l0.2,0.2l0.5,0.1h0.1h0.5L-34.9,64.6
				 M57.1,47.3l0.1,0.5v-0.9L57.1,47.3 M37.1,33.6l-2.5-17h-1.2l-0.7,0.8l0.4,2.9l0.3,2.8L35,33.4L37.1,33.6 M-5.9-6.9l-0.9-0.2
				h-0.6l-13.9-0.8l-3.3-0.2l0.3,0.2l0.9,0.7l0.6,0.3l4.2-0.3l19,1L-5.9-6.9"/>
			<path fill="#008400" d="M-27,64.3h1.5l0.8-0.5l1.7-1.5l1.8-3.7h-1.3l-1.2,1.5l-0.6,1.5l-0.5,1h-0.5l-0.4,0.3L-27,64.3
				 M-18.4,31.6l1.6,0.2l-0.8-4.9l-1.5-0.1l0.5,1.6l-0.3,0.5l0.5,0.4V31.6"/>
			<path fill="#008500" d="M-19.5,63.9l2.2-1.6l2.1-3.9l-5.6-0.3l-0.4,0.5l-1.8,3.7l-1.7,1.5L-19.5,63.9 M-10.9,32.1l-0.4-2.3
				l-0.3-2l-0.2-0.9h-5.8l0.8,4.9L-10.9,32.1"/>
			<path fill="#008600" d="M-25.7,62.9l0.4-0.3l1-1l0.6-1.5l-3.3-1l-2,2.7L-25.7,62.9 M54,42.6l2.3,3.5l-5-31l-1.8-0.5L54,42.6
				 M39.6,33.9h1.6l1.5,0.7c-3.1-0.7-4.2-7-3.3-19L37,16.3l1.2,7l0.5,8.1l0.3,1.9L39.6,33.9 M-22,31.9l3.7-0.3v-2.3l-0.5-0.4
				l0.3-0.5l-0.5-1.6l-3.7,0.6L-22,31.9"/>
			<path fill="#006C00" d="M-14,59.9l-1.5,2.9l-1.8,1.5l26-6.2h0.1l1.2-0.5l2.2-2.7L-14,59.9 M13.1,29.6l-14-5.2l-11.4-3.5l1,2.4
				l0.5,1l11.4,3l13.6,4.6L13.1,29.6"/>
			<path fill="#008300" d="M-14,59.9l26.2-5l1.3-2.1L0.3,54.3l-12.5,2.1l-1.5,2.7L-14,59.9 M14.3,31.9L0.6,27.3l-11.4-3l0.7,0.8
				l0.2,3L3,30.9l12.2,3.4L14.3,31.9"/>
			<path fill="#00A200" d="M-23.7,60.1l1.2-1.5l-0.2-0.5l1.9-3.5v-0.2c-0.1-0.2,0-0.3,0.1-0.3l1.4-4c-0.6-0.4-0.3-2.2,0.8-5.3v-0.5
				l0.7-4.4l-0.2-6l-0.3-2.3l-3.7,0.3c1.4,7.9-0.2,17-5,27.2L-23.7,60.1"/>
			<path fill="#00A000" d="M-15.2,59.1h1.5l1.5-2.7C-8.9,50.9-8,42-9.5,29.9l-1.7-0.1l0.4,2.3l-5.9-0.3l-1.6-0.2l0.3,2.3l0.2,6
				l-0.7,4.4v0.5c-1.1,3.1-1.4,4.9-0.8,5.3l-1.4,4c-0.2,0.1-0.2,0.2-0.1,0.3v0.2l-1.9,3.5l0.2,0.5h1.3l0.4-0.5l5.6,0.3l2-3.5
				L-15.2,59.1"/>
			<path fill="#006A00" d="M-41.9,57.3h2.3l13.5-5.9l-28.3-1.5l-6.4,2.9l0.2,1.8l0.5,1.8L-41.9,57.3 M-24.4,15.9h0.6l0.4-23.1
				l-0.9-0.7L-24.4,15.9 M-20.4-0.7v-0.5l-0.2,6.3L-20.4-0.7"/>
			<path fill="#707081" d="M-65.5,60.8l0.8-3.2c1.8,2.8,2.6,2.3,2.5-1.5l-0.3-1.7c-0.1-1.1-0.3-2.1-0.8-3.1l-1-1.7l-1.5,0.7
				l-1.2,5.6l0.2,1.9L-65.5,60.8"/>
			<path fill="#004800" d="M30.3,53.3l16,1l-6.3-1H30.3 M42.8,34.6l-1.5-0.7h-1.6l-2.5-0.3L35,33.4l-20.7-1.5l0.9,2.4l31.6,2.3
				L42.8,34.6"/>
			<path fill="#007600" d="M30.3,53.3H40l6.3,1l9,0.5l2.2-1l0.3-1.2l-22.5-0.7l-21-1.3l-0.6,1.8L30.3,53.3 M50.6,39.4L49,37.8
				l-2.2-1.2l-31.6-2.3l0.5,2.6L50.6,39.4"/>
			<path fill="#009800" d="M0.3,54.3l13.2-1.5l0.2-0.4l0.6-1.8l0.5-1.2l1-5.1v-4l-0.1-3.4l-0.5-2.6L3,30.9l-12.8-2.8l0.3,1.8
				C-8,42-8.9,50.9-12.2,56.4L0.3,54.3"/>
			<path fill="#004A00" d="M-61.2,51.4l0.5,1.4l6.4-2.9l-1.2-30.6l-6.8,3.6l-0.5,0.9l1.1,0.3l0.9,0.5h0.1l0.5,0.3l0.4,0.2l0.5,0.3
				l0.5,0.4l1.6,3.3l0.5,2l0.4,6.2l-1,5.5l-1.5,3.6l-0.9,1.5l-1.1,0.9l-0.9,0.5l-0.3,0.1l0.5,0.4L-61.2,51.4 M-65.9,50.3l-1.7-0.4
				l0.5,6L-65.9,50.3"/>
			<path fill="#9191A7" d="M-61.2,51.4l-0.3-1.6l-0.5-0.4h-1l-1.3,0.2l1,1.7L-61.2,51.4"/>
			<path fill="#009100" d="M14.3,50.6l21,1.3l22.5,0.7l0.4-1.7l-0.4-1l-9.3,1.2h-7.7l-26-1.7L14.3,50.6 M15.8,40.3L54,42.6l-3.3-3.2
				l-35-2.5L15.8,40.3 M99.8,19.1l-40.3-4.2l-3.3,0.9l-4.4-0.5l0.4,0.6l46.3,4.7L99.8,19.1 M-20.9,16.1l0.3-2.2v-0.5l0.2-1.1v-3
				l-0.2-3.9V5.1l0.2-6.3v-1.5v-0.4l0.1-0.1v-0.2l-0.1-0.2l-0.4-0.6l-1-1.7l-0.6-0.7l-0.4-0.3l-0.1,22.8L-20.9,16.1 M42.6,14.4
				l-5.9-0.6l0.4-0.4l0.3-0.6L8.8,9.9l-1.1,1.7l33.1,3.3L42.6,14.4 M103,5.3L76.6,1.4v2.2l-1.4,0.8l27.9,3.4L103,5.3 M12-2.7l8,0.8
				l-0.7-4.8l-7.8-1.2L12-2.7"/>
			<path fill="#9797AD" d="M-65.9,50.3l1.5-0.7l-4.5-1.3l-0.2-1.4l-0.5-0.1l-1.8,1.1h-0.9l0.2,0.2l0.3,0.2l1,0.6l1,0.4l2.2,0.6
				L-65.9,50.3 M-62,49.4l0.3-0.1l0.9-0.5l1.1-0.9l0.9-1.5c-0.7,1.3-2,2.3-4.2,3H-62 M-68.7,45.3h0.2l0.5-1.4l0.2-0.3l0.5-1.7
				l0.1-0.5l0.5-3.8l-0.3,1.3l-0.2,0.7l-0.3,1.5v0.7l-0.5,1.1l-0.2,0.5l-0.6,1.5v0.2L-68.7,45.3 M-66.9,37.4l0.3-0.3l0.2-2
				c-2.2-4.5,0.8-6.5,9.1-6l-1.6-3.3l-2-0.7l0.6,1.3l-4.5,0.2c1.3,2,0.5,2.8-2.6,2.3v0.2l0.3,1.3v0.4l0.5,1.5l-0.3,0.1l0.3,2h-0.3
				v2.2V37.4 M125-28.4l-1.7-4.3l-1.5-2.2l-0.3-0.2l-0.5-0.3l0.7,1.2v1.1l0.5,0.2l0.2,2.7l0.5,1.5L125-28.4"/>
			<path fill="#009400" d="M-26,51.4l-1.2-30l-11.5-1l-16.8-1.1l1.2,30.6L-26,51.4 M76.6,3.6V1.4l-0.2-3.1l-0.3-2.4l-0.9-9l-4.8-0.5
				l0.3,2.7l0.7,8.2l0.7,5.8L76.6,3.6 M49.1-1.9L48-16.7h-0.5l-20.8-2.7L28-2.1l21.2,2.5V-1.9"/>
			<path fill="#C1C1DC" d="M-64.4,49.6l1.3-0.2c2.1-0.7,3.5-1.7,4.2-3l1.5-3.6c-1.3,5-5.1,5.8-11.4,2.5l-0.1,0.3l-0.5,1l-0.2,0.2
				l0.5,0.1l0.2,1.4L-64.4,49.6 M-66.7,37.6l-0.5,3.8l0.5-0.3V37.6 M-66,36.6l-0.3-1.5c1-4.1,4.2-5.4,9.6-4l-0.5-2
				c-8.3-0.5-11.4,1.5-9.1,6l-0.2,2L-66,36.6"/>
			<path fill="#00A800" d="M40.8,51.1h7.7l9.3-1.2l-0.1-0.8v-0.7l-0.4-0.5v-0.1l-0.1-0.5l-0.9-1.2L54,42.6l-38.2-2.3v4l-1,5.1
				L40.8,51.1"/>
			<path fill="#5D5D6B" d="M-72.2,47.9h0.9l1.8-1.1l0.2-0.2l0.5-1l0.1-0.3l-0.1-0.2l-1.7,2.2l-2.2,0.3L-72.2,47.9 M-67,38.9l0.3-1.3
				l-0.1-0.2L-67,38.9 M-66.9,36.6v-2.2h0.3l-0.3-2l0.3-0.1l-0.5-1.5l0.2,1.6v2v0.9V36.6 M-58.9,25.8l-0.5-0.4l-0.5-0.3l-0.4-0.2
				l-0.5-0.3h-0.1l-0.9-0.5l-1.1-0.3l-1-0.2l-1-0.2l-2.2,0.2l-3.8,1.3l-0.2,0.2l1.7,0.5c0.7,0.2,1.3,1.3,2,3.3
				c3.1,0.4,4-0.3,2.6-2.3l4.5-0.2l-0.6-1.3L-58.9,25.8"/>
			<path fill="#006D00" d="M57.1,47.3l0.1-0.4v-0.1l-0.1-1L57,44.9v-0.5h-0.2v-0.8l-0.1-0.2v-0.6v-0.5h-0.2v-0.7l-0.2-0.3v-0.5v-0.2
				l-0.1-0.5v-0.3v-0.4L56,38.9v-0.3v-0.2l-0.2-0.5v-0.3v-0.2l-0.1-0.6v-0.2v-0.2l-0.4-0.6l0.2-0.2v-0.2l-0.2-1.1l-0.1-0.9v-0.5H55
				v-0.1v-0.5l-0.2-1l-0.1-1.2l-0.2-1l-0.2-0.8v-0.5h-0.1v-0.7L54,26.8v-0.5v-0.5h-0.2v-0.9l-0.1-0.3v-0.5l-0.2-0.3l-0.8-5.4v-0.3
				l-0.2-0.5l-0.2-0.5v-0.2v-0.1l-0.1-0.5v-0.4l-0.4-0.6l-0.5-0.2l5,31L57.1,47.3 M39.6,33.9L39,33.3l-0.3-1.9l-0.5-8.1l-1.2-7
				l-2.3,0.3l2.5,17L39.6,33.9"/>
			<path fill="#EDEDFD" d="M-68.7,45.3c6.2,3.3,10,2.5,11.4-2.5l1-5.5l-0.4-6.2c-5.4-1.4-8.6-0.1-9.6,4l0.3,1.5l-0.5,0.5l-0.3,0.3
				l0.1,0.2v3.5l-0.5,0.3l-0.1,0.5l-0.5,1.7l-0.2,0.3l-0.5,1.4H-68.7"/>
			<path fill="#6D6D7E" d="M-70.5,47.3l1.7-2.2v-0.2l0.6-1.5l0.2-0.5l0.5-1.1v-0.7l0.3-1.5h-1.1c-0.9,3.7-1.9,5.5-2.9,5.3l-1.6-0.3
				l-0.9-1l-1,1.3l0.7,1.7l1.3,1L-70.5,47.3"/>
			<path fill-opacity="0" d="M57,44.4l-0.2-0.8v0.8H57 M56.6,42.3l-0.2-0.7v0.7H56.6 M55.1,32.9L55,32.8v0.1H55.1 M54.3,27.8
				l-0.1-0.7v0.7H54.3 M53.8,25.8H54l-0.2-0.9V25.8 M-1.9,3.1V1.6v0.2v0.8v0.3V3.1 M-1.9-0.1l-0.2-1v0.2v0.5v0.3H-1.9"/>
			<path fill="#6C6C7D" d="M-75.7,39.8l0.2,2.6l0.8,2.5l1-1.3l0.9,1l1.6,0.3c1,0.1,2-1.7,2.9-5.3h1.1l0.2-0.7l0.2-1.5v-0.8v-1.3
				c-2.6,1.2-4.7,3-6.4,5.3l-0.5-1.8L-75.7,39.8"/>
			<path fill="#009A00" d="M50.6,39.4l3.3,3.2l-4.5-28l-6.8-0.2l-1.9,0.5l-1.3,0.7c-0.9,12,0.2,18.3,3.3,19l4,2l2.2,1.2L50.6,39.4"
				/>
			<path fill="#6B6B7C" d="M-75.7,35.4v4.4l2-1l0.5,1.8c1.7-2.3,3.8-4.1,6.4-5.3v-0.9v-2l-0.2-1.6l-2.2,2.3
				c-0.2-2.1-1.1-2.8-2.6-2.2c-1.4,2.6-1.9,4.1-1.5,4.5H-75.7"/>
			<path fill="#6A6A7A" d="M-73.4,35.4c-0.4-0.4,0.1-1.9,1.5-4.5c1.6-0.7,2.5,0.1,2.6,2.2l2.2-2.3v-0.4l-0.3-1.3v-0.2
				c-0.7-2-1.3-3.1-2-3.3l-1.7-0.5l-2.3,2l-1.4,3l-1,5.3H-73.4 M-67,23.6l2.2-0.2l0.1-1.5l0.5-0.3l0.5-6.2l-1.3-2l-0.7,3
				c-1.8-2.2-2.6-1.7-2.5,1.7L-67,23.6"/>
			<path fill="#F7F7FE" d="M-62.9,23.8l0.5-0.9l1.1-9.6l-0.3-11V2.1l-0.2-3.5l-2.1-0.2l0.5,4.7l0.1,7.8l-0.5,4.5l-0.5,6.2l-0.5,0.3
				l-0.1,1.5l1,0.2L-62.9,23.8"/>
			<path fill="#004500" d="M94.1,23.4l4.6,0.2l-3.5-0.5L94.1,23.4 M-60.5,2.6l1-0.2l0.8-0.8l1-2l1-2.8l0.4-3l-0.2-3l-0.5-2.5l-1-1.5
				l-0.3,0.1l-1,1.2l-2.7,1.7l-0.7,2.5l-0.1,0.8l0.6,3l0.5,2.5l0.2,3.5v0.2L-60.5,2.6"/>
			<path fill="#007200" d="M98.8,23.6l1.2-0.2l2.5-1.6l-3.8-0.4l-3.4,1.7L98.8,23.6 M1,12.6l-0.7-0.7l-1.1,0.4L1,12.6 M-5.4,6.6
				l0.1,0.3l0.4-0.5l0.3-0.8L-4,5.1l-0.7-1.3l-0.1-4l-0.5,0.6v1.2l0.1,2.7l0.7,1.3L-5.4,6.6 M102.8,2.4l3.9,0.5l-0.5-0.6l-0.9-1.2
				l-3.1-0.5L102,1.1L102.8,2.4 M-1.9,1.6V0.3v1.5V1.6 M-2.4-1.9l0.1,0.2L-2-1.9H-2.4"/>
			<path fill="#007500" d="M94.1,23.4l1.1-0.3l3.4-1.7l1.5-1.6c2.4-2.8,3.5-6.9,3.3-12.2V4.8l-0.7-2.4L102,1.1l-0.3,0.2l-25.2-3
				l0.2,3.1L103,5.3l0.2,2.5c0.7,3.9-0.5,7.6-3.4,11.3l-1.3,1.5l-46.3-4.7v0.4l0.1,0.5v0.1v0.2l0.2,0.5l0.2,0.5L95,22.3l-4.5-0.2
				l0.8,0.7L94.1,23.4 M33.5,16.6h1.2l2.3-0.3l2.5-0.7l1.3-0.7L7.6,11.6l-1.2,1.2l-2.3,1l14.1,1.3l9.7,1l3,0.2L33.5,16.6 M75.3,4.4
				l1.4-0.8l-4.5-0.5l0.1,2.2L75.3,4.4 M19.6,2.3l20.8,2.3l7.3-3.5l0.4-0.2L21,1.6l-1.2,0.3L19.6,2.3 M0.6-4.6L0.5-3.2l2.8-0.4
				c1.3-0.1,2.5-0.8,3.4-2L0.5-6.2l0.2,0.8V-4.6 M-21.2-7.9l13.9,0.8L-22-8.9L-21.2-7.9 M11.5-7.9l7.8,1.2l-0.6-2.2l-7.4-0.8
				l-0.5,0.1L11.5-7.9 M-62-10.2l2.7-1.7l1-1.2l-25.5-3l-2,2.4l-0.4,0.5l1.4,0.3h0.1l1.4,0.2l1.5,0.1l2.8,0.4l1.5,0.1l1.5,0.2
				l1.5,0.2l2.8,0.3l1.5,0.2l1.5,0.1l2.9,0.4l1.5,0.1l1.5,0.2h0.1L-62-10.2 M112-35.6L-74.9-71.9l1.1,9l0.2,1.5l99.7,16l87.2,14.7
				L112-35.6"/>
			<path fill="#004400" d="M90.5,22.1l4.5,0.2l-42.3-4.2v0.3L90.5,22.1 M94.5-47.9l-83.3-15l-1.9-0.3l-0.8-0.2H8l-0.8-0.2l-0.5-0.1
				H6.1l-0.9-0.2l-0.5-0.2H4.3l-0.8-0.1L3-64.4H2.5l-0.8-0.2l-0.5-0.1H0.6l-0.9-0.2l-0.5-0.2h-0.5L-2-65.2l-0.5-0.2H-3l-0.8-0.2
				l-0.5-0.1h-0.5l-0.9-0.2l-0.5-0.2h-0.5l-0.8-0.1l-1-0.2l-0.8-0.2l-1-0.1l-0.9-0.2l-1-0.2c-0.3,0.2-0.6,0.1-0.8-0.1l-1-0.2
				l-0.5-0.2H-15l-0.8-0.1l-0.5-0.2h-0.5l-0.9-0.2l-0.5-0.1h-0.5l-0.8-0.2l-0.5-0.2h-0.5l-0.8-0.1l-0.5-0.2h-0.5l-0.9-0.2l-0.5-0.1
				h-0.5l-0.8-0.2l-0.5-0.2H-26l-0.8-0.1l-1-0.2l-0.9-0.2l-1-0.1l-0.8-0.2l-1-0.2l-0.8-0.1l-1-0.2l-0.9-0.2l-1-0.1l-0.8-0.2l-1-0.2
				l-0.8-0.1l-1-0.2l-0.5-0.2h-0.5l-0.9-0.1l-0.5-0.2h-0.5l-0.8-0.2l-0.5-0.1h-0.5l-0.8-0.2l-1-0.2l-0.9-0.1l-1-0.2l-0.8-0.2l-1-0.1
				l-0.8-0.2l-1-0.2l-0.9-0.1l-1-0.2l-0.8-0.2l-1-0.1l-0.8-0.2l-1-0.2l-0.9-0.1l-1-0.2l-0.8-0.2l-1-0.1l-0.8-0.2l-1-0.2l-0.9-0.1
				l-1-0.2l-1-0.2l-0.8-0.1l-1-0.2l-0.8-0.2l-1-0.1l-0.9-0.2l-1-0.2l-0.8-0.1l-1-0.2l-0.8-0.2l-1-0.1l-0.9-0.2l-1-0.2l-0.8-0.1
				l-0.7-0.2h-0.5l1.2,1.8l0.8,2.9l0.9,2.3L112-35.6C109.5-43.5,103.7-47.6,94.5-47.9"/>
			<path fill="#A1A1BA" d="M33.5,23.1l-0.3-2.8l-9-0.9l-5,2.4L33.5,23.1"/>
			<path fill="#008C00" d="M98.6,21.4l3.8,0.4l1.5-1.5l-3.8-0.5L98.6,21.4 M107.6,8.3h0.3l1.8-0.9l2.5-2.1l1.7-1.5l0.5-0.7l0.7-1
				l-8-0.8l-1,1l0.5,0.6l-3.9-0.5l0.7,2.4v2.8l4.2,0.3V8.3 M-6-2.2l6.3-0.2l-20.5-1v0.2l0.5,0.1h0.4l2.3,0.2l2.8,0.2l2.7,0.1h0.3
				l2.4,0.2h0.5L-6-2.2 M0.6-5.4l-23-1.2l0.6,0.7L0.6-4.6V-5.4 M123.1-20.2v-1.9l-0.3-6.6l-0.5-1.5l-7.8-1.4l0.7,5.7l8,7.2V-20.2"/>
			<path fill="#004600" d="M-19.5,20.9l6,0.5l-0.8-1.8l1.5,0.2l-0.7-1.9l-1-0.8l-3.5-2.7h-1.5h-0.8v1.9h-0.2l-0.7,0.8l-1.3,0.2
				l0.3,1.1l1.4,2.4L-19.5,20.9 M-25.5,14.1v-0.3h-1.3l1.3,0.8V14.1"/>
			<path fill="#00A700" d="M104,20.3c2.5-2.9,3.8-6.9,3.7-12V7.9l-4.2-0.3c0.2,5.3-0.9,9.4-3.3,12.2L104,20.3"/>
			<path fill="#8E8EA3" d="M24.1,19.4l3-1.5l0.8-1.8l-9.7-1l0.4,6.3l0.5,0.4L24.1,19.4"/>
			<path fill="#A4A4BD" d="M24.1,19.4l9,0.9l-0.4-2.9l0.7-0.8L31,16.3l-3.8,1.6L24.1,19.4"/>
			<path fill="#007700" d="M-23.2,17.3h0.7l1.3-0.2l0.7-0.8l-0.3-0.2l-2-0.2h-0.9h-0.6l-1,0.4l0.6,0.8L-23.2,17.3"/>
			<path fill="#9191A6" d="M31,16.3l-3-0.2l-0.8,1.8L31,16.3 M37.1,13.4l6.3-2.6l2.8-5.5l1.5-4.2l-7.3,3.5L39,10.3l-1.5,2.5
				L37.1,13.4 M50.6-5.1l-0.5-6.5l-0.7-6.1l-2,1H48l1.2,14.8L50.6-5.1"/>
			<path fill="#007E00" d="M-20.4,16.3v-1.9l-0.2-0.5l-0.3,2.2l0.3,0.2H-20.4 M-23.7,15.9h0.9l0.1-22.8l-0.6-0.3L-23.7,15.9"/>
			<path fill="#004C00" d="M-24.4,15.9l0.1-23.8l-0.3-0.2L-25-7.9l-0.2,2.2v0.1v2.9v5.8v2v0.7v0.1l-0.3,7.9v0.3v1l0.2,1.2
				L-24.4,15.9"/>
			<path fill="#A7A7C1" d="M51.8,15.3l4.4,0.5l3.3-0.9l7.2-3.1L46.1,9.6l-2.7,1.2l-6.3,2.6l-0.4,0.4l5.9,0.6l6.8,0.2l1.8,0.5
				L51.8,15.3"/>
			<path fill="#00AB00" d="M59.5,14.9l40.3,4.2c2.9-3.7,4-7.4,3.4-11.3L75.3,4.4l-3,0.9l0.2,4l-5.8,2.5L59.5,14.9 M37.5,12.8
				l1.5-2.5l1.5-5.7L19.6,2.3l0.1-0.4L20-1.9l-8-0.8l-0.7,7L8.8,9.9L37.5,12.8"/>
			<path fill="#005400" d="M-25.5,15.1v-1v0.5V15.1"/>
			<path fill="#686877" d="M-65,13.4l1.3,2l0.5-4.5l-0.1-7.8c-3.6,0.1-5.4,3.2-5.4,9.2l0.5,5.8c-0.1-3.3,0.7-3.9,2.5-1.7L-65,13.4"
				/>
			<path fill="#005700" d="M1,12.6l0.8,0.7l2.4,0.5l2.3-1l1.2-1.2l1.1-1.7l2.5-5.6l0.7-7l-0.5-5.2l-0.7-1.7L8.1-6.4L6.6-5.6
				c-0.9,1.2-2,1.9-3.4,2L0.5-3.2L0.3-2.4l-0.5,0.7L-2-1.9l-0.2,0.2L-2-1.2v0.1l0.2,1H-2l0.2,0.4v1.3v1.5l5.3-0.3l0.8,0.5v0.5
				l0.2,0.6L4.3,5.6L3.6,6.1L3.3,6.4L2.8,6.6H2.1L1,6.8H0.3l-1,0.1h-0.8l-0.3,0.2L-1,9.8l0.3,0.8l1,1.3L1,12.6"/>
			<path fill="#005A00" d="M-0.9,12.3l1.1-0.4l-1-1.3L-0.9,12.3 M21,1.6l7-3.7l-1.3-17.3l-3.4,1.7L22-14.2l-1.8,3l-1.5,2.3l0.6,2.2
				L20-1.9l-0.2,3.8L21,1.6"/>
			<path fill="#9494AA" d="M46.1,9.6l5.5-2.5l-0.5-6.3l-0.5-5.9l-1.5,3.2v2.3l-1,0.5l-0.4,0.2l-1.5,4.2l-2.8,5.5L46.1,9.6"/>
			<path fill="#ABABC4" d="M46.1,9.6l20.5,2.2l5.8-2.5L51.6,7.1L46.1,9.6"/>
			<path fill="#007900" d="M-5.2,6.9l1.7,0.4l1.2-0.2l0.8-0.2h0.8l1-0.1H1l1.2-0.2h0.6l0.5-0.2l0.4-0.3L-5.2,6.9 M-3.2,4.4l7.5-0.6
				V3.3l-7,0.5L-3.2,4.4 M-5.9,1.1V0.9l-14.5-1.6l0.8,0.3l0.5,0.2h1l0.5,0.1h1.2l0.5,0.2h1l0.6,0.2h0.9l0.5,0.1h1l0.5,0.2h1.1
				l0.4,0.2h1l0.5,0.1h1.1l0.5,0.2H-5.9 M48.1,0.9l1-0.5L28-2.1l-7,3.7L48.1,0.9 M-5-2.1l-1-0.1h-1.8L-5-2.1 M-8.4-2.4h-0.5h-0.5
				H-8.4"/>
			<path fill="#004900" d="M-1.9,7.1l0.3-0.2l-0.8,0.2H-1.9 M-5.4,6.6l0.8-1l-0.7-1.3l-0.1-2.7V0.4l-0.5,0.5v0.2l0.5,0.5V6.6
				 M-2.4,3.4l-0.4,0.4l7-0.5L3.5,2.8l-5.3,0.3L-2.4,3.4"/>
			<path fill="#DBDBFC" d="M72.5,9.3l-0.2-4l-5.8-2.9l-8.8-0.8L57,1.8l-2,0.8l0.5-1.3l-4.3-0.5l0.5,6.3L72.5,9.3"/>
			<path fill="#009C00" d="M-4.9,6.4l-0.4,0.5l8.9-0.8L-4.9,6.4 M-4,5.1l8.5-0.7L4.3,3.8l-7.5,0.6l-0.6,0.4L-4,5.1"/>
			<path fill="#00B600" d="M-4.9,6.4l8.5-0.3l0.6-0.5l0.2-1.2L-4,5.1l-0.5,0.5L-4.9,6.4 M-57.7-0.4l32.5,3.5v-5.8l-31.1-3.5l-0.4,3
				L-57.7-0.4"/>
			<path fill="#003D00" d="M-25.2,5.9V5.8l-34.3-3.4l-1,0.2L-25.2,5.9 M-25-7.9l0.5-0.2l3.3,0.2l-0.8-1l-36-4.3l1,1.5L-25-7.9"/>
			<path fill="#007800" d="M-25.2,5.1l-33.5-3.5l-0.8,0.8l34.3,3.4V5.1 M-25-7.9l-32-3.8l0.5,2.5l31.3,3.5L-25-7.9"/>
			<path fill="#008800" d="M-4,5.1l0.2-0.3l-0.5-6.9H-5v0.5l0.2,0.5v0.9l0.1,4L-4,5.1 M-2.4,3.4l0.5-0.3V2.9L-2.4,3.4 M-1.9,0.3
				h-0.4l0.4,1.5V0.3"/>
			<path fill="#009E00" d="M-3.9,4.8l0.6-0.4l0.5-0.6l0.4-0.4l0.5-0.5V2.6V1.8l-0.4-1.5h0.4L-2-0.1v-0.3v-0.5v-0.2v-0.1l-0.2-0.5
				l-0.1-0.2l-2-0.2L-3.9,4.8"/>
			<path fill="#9696AD" d="M112.3,5.3l2.7-0.2l1.3-1L114,3.8L112.3,5.3 M127.1-27.9l-1.2-4.2l-2.2-2.5l-2-0.3l1.5,2.2l1.7,4.3
				L127.1-27.9"/>
			<path fill="#C3C3E1" d="M114,3.8l2.3,0.3l3.2-2.2l-2.8-0.1h-0.2l-0.8,0.6l-0.5,0.4l-0.3,0.1L114,3.8 M126-19.6l2.3,0.4v-0.9
				l-0.2-1.5l0.2-0.8l-0.2-2.5l-1-3l-2.2-0.5l0.8,3.3v5.2L126-19.6"/>
			<path fill="#009B00" d="M-25.2,3.1l-32.5-3.5l-1,2l33.5,3.5V3.1 M-25.2-5.6v-0.1l-31.3-3.5l0.2,3l31.1,3.5V-5.6"/>
			<path fill="#DADAFA" d="M72.1,3.1l-0.7-5.8l-4.7-2.5l-0.8,3l-1.3,0.6h-0.2l-0.3,0.4l-0.7,0.1h-0.2l-0.1,0.2H63l-0.7,0.3l-4.6,2.2
				l8.8,0.8l5.8,2.9L72.1,3.1 M51.1,0.8l4.3,0.5L58-5.1l-0.2-0.5l0.4-1.3l1.6-1.8l-4.5-2.4l-5.1-0.5l0.5,6.5L51.1,0.8"/>
			<path fill="#BDBDD9" d="M114,3.8l0.8-0.9l-0.3,0.2L114,3.8"/>
			<path fill="#666675" d="M-63.4,3.1l-0.5-4.7L-64-2.7c-2.5-3.2-4-2.4-4.5,2.6l-0.2,12.4C-68.7,6.3-66.9,3.2-63.4,3.1"/>
			<path fill="#C4C4E2" d="M114.5,3.1l0.3-0.2l0.3-0.1l0.5-0.4l0.8-0.6h0.2l0.2-0.4h-1.2l-0.5,0.7L114.5,3.1 M125.8-19.9v-5.2
				l-0.8-3.3l-2.2-0.3l0.3,6.6v1.9L125.8-19.9"/>
			<path fill="#EFEFFE" d="M119.5,1.9c5.3-4.6,8.2-10.6,8.7-18.1v-0.2l0.2-2.8l-2.3-0.4l-0.3,4.7c-1.3,5.8-2.5,9.1-3.7,9.8l-0.3,0.5
				l-0.3,0.5L121-3.6l-0.3,0.5l-1.8,3.4l-1,0.6l-0.3,0.2l-0.3,0.3h-0.3l-0.2,0.4L119.5,1.9"/>
			<path d="M57,1.8l0.7-0.2l4.6-2.2L63-0.9h0.2l0.1-0.2h0.2v-0.1l-0.2-0.4h0.5h0.7h0.2L66-2.2l0.8-3l2.7-6.4l0.3-0.8l-1.1,0.3
				l-5.4,2.4l-2.6,0.6l-0.5,1.4L60-6.4l-0.2,0.8l-2.6,6L57,1.8 M64.1-3.7c-2.8-1.6-2.9-2.9-0.5-3.9C65.6-5.7,65.8-4.4,64.1-3.7"/>
			<path fill="#00A600" d="M115.6,1.4l2.5-3.5l1.8-4.3l0.5-0.7v-0.1l0.2-0.5l0.7-2.5l0.8-2.7l0.8-5.3l0.2-0.5l-8-7.2
				c0.2,11.2-2.4,20.3-8,27.2l8,0.8L115.6,1.4"/>
			<path fill="#F0F0FF" d="M115.6,1.4h1.2h0.3l0.3-0.3l0.3-0.2l1-0.6l1.8-3.4l0.3-0.5l0.3-0.5l0.3-0.5l0.3-0.5
				c1.1-0.8,2.3-4,3.7-9.8l0.3-4.7l-0.2-0.3l-2.7-0.3v1.5l-0.2,0.5l0.2,3l-1,2.3l-0.8,2.7l-0.7,2.5l-0.2,0.5v0.1L120-6.4l-1.8,4.3
				L115.6,1.4"/>
			<path fill="#6B6B7B" d="M55.5,1.3L55,2.6l2-0.8l0.2-1.4l2.6-6L58-5.1L55.5,1.3"/>
			<path fill="#009200" d="M101.6,1.3l0.3-0.2l0.2-0.5l3.1,0.5l1.2-1.3L76.1-4.1l0.3,2.4L101.6,1.3 M6.6-5.6l1.5-0.8l2.6-3.2
				l0.5-0.1l7.4,0.8l1.5-2.3l-7.9-1l-1,2.5L-36-14.9l-45.8-4.3l-1.4,2l-0.6,1.1l25.5,3l0.3-0.1l36,4.3l14.7,1.8h0.6l0.9,0.2l6.3,0.7
				L6.6-5.6 M113.3-30.7L26.1-45.4l-99.7-16l-0.3,12.7l92.8,14l94.8,14.6l0.2-6.8L113.3-30.7"/>
			<path fill="#009D00" d="M-5.4,0.4l-15-1.6v0.5l14.5,1.6L-5.4,0.4 M-4.9-1.1L-5-1.6v-0.5l-2.8-0.1l-0.5-0.2h-1l-1.9-0.2h-0.3
				l-2.7-0.1L-17-2.9l-2.3-0.2h-0.4h-0.6v0.4L-4.9-1.1"/>
			<path fill="#00B800" d="M-4.9-0.2v-0.9l-15.5-1.6v1.5l15,1.6L-4.9-0.2"/>
			<path fill="#9D9DB4" d="M63.5-1.1l0.7-0.1l0.3-0.4h-0.7l-0.3,0.4V-1.1 M57.8-5.6L58-5.1l1.8-0.5L60-6.4L57.8-5.6"/>
			<path fill="#BEBEDB" d="M63.5-1.2l0.3-0.4h-0.5L63.5-1.2"/>
			<path fill="#CECEE3" d="M-61.7-1.4l-0.5-2.5l-2-0.2l0.2,1.4l0.2,1.1L-61.7-1.4"/>
			<path fill="#006F00" d="M-2.4-1.9H-2l1.8,0.2l0.5-0.7L-6-2.2l-2.3-0.2l0.5,0.2H-6l1,0.1h0.7L-2.4-1.9 M-9.4-2.4h0.5l-2.4-0.2
				L-9.4-2.4 M-20.4-3.1h0.6l-0.5-0.1L-20.4-3.1 M0.6-5.4L0.5-6.2l-19-1l-4.2,0.3l0.4,0.3L0.6-5.4"/>
			<path fill="#00AC00" d="M0.5-3.2l0.2-1.4l-22.4-1.3l1,1.7l0.4,0.6l0.1,0.2l20.5,1L0.5-3.2"/>
			<path fill="#646473" d="M-64.2-4.1l-0.6-2.8l-0.9-1.8l-0.8-0.2l-1,1.8l-1,7c0.5-5,2-5.9,4.5-2.6L-64.2-4.1"/>
			<path fill="#B2B2CD" d="M-62.2-3.9l-0.6-3h-2l0.6,2.8L-62.2-3.9 M-64.2-8.6l-2.3-0.3l0.8,0.2L-64.2-8.6"/>
			<path fill="#00AD00" d="M76.1-4.1l30.3,3.9c4.7-6.2,7.1-12.9,7.3-19.9L19-34.7l-92.8-14l-1.5,10.6l-1.9,7.5l-2,5.9l-2.6,5.5
				l45.8,4.3l47.3,5.2l1-2.5l7.9,1l1.8-3l1.3-3.5l3.4-1.7l20.8,2.7l2-1l10.7,1.3l10.1,1.3l0.2,1.5l4.8,0.5L76.1-4.1"/>
			<path fill="#D8D8F8" d="M66.8-5.2l4.7,2.5l-0.7-8.2l-1.3-0.7L66.8-5.2 M60.6-9.1l2.6-0.6l5.4-2.4l-8.5-4.3l-10.7-1.3l0.7,6.1
				l5.1,0.5l4.5,2.4L60.6-9.1"/>
			<path fill="#828295" d="M57.8-5.6L60-6.4l0.2-1.3l-2,0.8L57.8-5.6"/>
			<path fill="#777789" d="M-62.9-6.9L-63-7.1l-0.2-1.1l-1-0.4l-1.5-0.1l0.9,1.8H-62.9"/>
			<path fill="#00BA00" d="M-62.9-6.9l0.1-0.8L-63-7.1L-62.9-6.9"/>
			<path fill="#FFFF00" d="M64.1-3.7c1.7-0.7,1.5-2-0.5-3.9C61.2-6.6,61.4-5.3,64.1-3.7"/>
			<path fill="#42424C" d="M60.1-7.7l0.5-1.4l-0.9,0.4l-1.6,1.8L60.1-7.7"/>
			<path fill="#007300" d="M-93.4-11.2l1.6,0.1h2l3.5-2.1l0.4-0.5L-97-15.1l-1.5,1.5l-2.5,1.4l0.3,0.1h0.2l1.3,0.2l1.5,0.2l1.4,0.1
				l1.5,0.2L-93.4-11.2 M-85.2-64.7l11.5,1.8l-1.1-9l-0.9-2.3l-11.3-2l1.7,7.8L-85.2-64.7 M-92-84.2l-0.5-0.2h-0.2L-92-84.2"/>
			<path fill="#D7D7F7" d="M70.8-10.9l-0.3-2.7l-0.2-1.5l-10.1-1.3l8.5,4.3l1.1-0.3l-0.3,0.8L70.8-10.9"/>
			<path fill="#002500" d="M-100.7-12.1l-0.3-0.1h-1L-100.7-12.1 M-87-76.2l11.3,2l-0.8-2.9l-1.2-1.8v-0.2l-2.8-3l-1.7-0.3l-0.6-0.2
				l-0.9-0.1l-1-0.2l-1.8-0.3l-0.8-0.2l-1-0.2l-0.9-0.1l-1-0.2l-0.8-0.2l-0.5-0.1H-92l2.2,1.8C-88-79.5-87-77.5-87-76.2"/>
			<path fill="#003A00" d="M-102-12.2h1l2.5-1.4l1.5-1.5l2.5-3.5c4.5-6.9,7.5-17.5,9-31.8l0.5-6.2l-0.2-8.1l-0.1-3.7l-1.7-7.8
				c0-1.2-1-3.3-2.8-6.2l-2.2-1.8l-0.7-0.2h-0.1l-0.9-0.2h-0.5l-3.1,1.2l-4,4.5c3.2,3,4.6,9.3,4.1,19l0.7,0.2h0.3l1.9,0.3l1,0.2
				l1.5,0.3l0.5,0.7l0.1,0.6v0.7l-0.1,3.2l-1,1.8l-0.5,0.5l-4.7-0.7l-0.2,2.7l-0.1,0.5l-0.2,0.7l-0.2,0.5l-0.3,3.3
				c-2.5,10.3-4.7,16.3-6.7,17.8l-2,2.9l-1.1,0.3l-1.4,0.5l-0.1,0.2l2.3,6.5C-106.8-14-104.9-12.7-102-12.2"/>
			<path fill="#009000" d="M-85.9-13.7l2-2.4l0.6-1.1l-11.3-1.4l-2.5,3.5L-85.9-13.7 M-85.5-50.4l11.7,1.7l0.3-12.7l-0.2-1.5
				l-11.5-1.8l0.2,8.1L-85.5-50.4"/>
			<path fill="#BABAD5" d="M128.1-16.2l1.3-0.4l1.2-1.8l-2.3-1.7v0.9l-0.2,2.8V-16.2"/>
			<path fill="#BBBBD7" d="M123-18.2l-0.8,5.3l1-2.3L123-18.2"/>
			<path fill="#00AE00" d="M-83.2-17.2l1.4-2l2.6-5.5l2-5.9l1.9-7.5l1.5-10.6l-11.7-1.7c-1.5,14.3-4.5,25-9,31.8L-83.2-17.2"/>
			<path fill="#8B8B9F" d="M130.8-19.6l-1.3-0.8v-0.8l-1.3-0.4l0.2,1.5l2.3,1.7L130.8-19.6"/>
			<path fill="#4C4C58" d="M128.1-21.6l1.3,0.4v0.8l1.3,0.8l-0.5-2l-1.2-0.6l-0.5-0.2h-0.3L128.1-21.6 M123.8-34.6l-2-2.8l-2-0.7
				l1.2,2.7l0.5,0.3l0.3,0.2L123.8-34.6"/>
			<path fill="#8A8A9E" d="M-109.9-22.7l0.1-0.2l1.4-0.5l-3.7-0.5l-2,0.8l3.7,0.4H-109.9 M-97.4-52.9v-4.5l0.1-0.7v-1l-4.1-0.5v1.5
				v0.5l-0.2,3.9L-97.4-52.9 M-105.2-79.7l3,0.5l-1.6-1.2l-3.4-0.5l0.7,0.7h0.3l0.4,0.1L-105.2-79.7"/>
			<path fill="#303037" d="M-114.7-22.9l2.9,0.5l1.5-0.3l-3.7-0.4L-114.7-22.9 M-97.2-59.1v-0.8c0.5-9.7-0.9-16-4.1-19l-0.9-0.3
				l-3-0.5c0.8,0.2,1.9,2.3,3.2,6.3l0.2,3.8l0.1,0.4l0.9,5.5l-0.4,3l-0.1,1.1L-97.2-59.1"/>
			<path fill="#575765" d="M-114.7-22.9l0.7-0.2l2-0.8l0.8-0.5l-1.1,0.3l-2,0.7l-0.9,0.3L-114.7-22.9"/>
			<path fill="#2E2E35" d="M-115.2-23.1l0.9-0.3l-3.4-0.5l-1,0.3L-115.2-23.1 M-101.4-59.7l0.1-1l0.4-3l-0.9-5.5l-0.1-0.4l-0.2-3.8
				c-1.3-4-2.4-6.1-3.2-6.3l-0.6-0.4l-0.4-0.1h-0.3l-3.2-0.5l1.4,0.8l1.1,3.5l1.4,3.7l0.8,7.5l-0.2,5L-101.4-59.7"/>
			<path fill="#565663" d="M-118.7-23.6l1-0.3l1.9-0.7c0.7,0,2.2-2,4.5-6l1.6-4.6l2.2-6.5l0.5-3.7l-2.8,2.3
				c-1.3,5.7-3.1,9.5-5.4,11.4c-2.1,1.8-3.8,1.3-5.1-1.4l-2.7,3l0.8,3.4C-120.4-24.4-119.3-23.3-118.7-23.6"/>
			<path fill="#88889C" d="M-114.4-23.4l2-0.7l-3.5-0.5l-1.9,0.7L-114.4-23.4 M-101.5-53.7l0.2-3.9v-0.5v-1.5v-0.1l-3.9-0.5
				l-0.3,3.1l-0.2,2.7L-101.5-53.7 M-106.5-80.2l-0.7-0.7l-4.5-0.8l2,1L-106.5-80.2"/>
			<path fill="#C0C0DB" d="M-111.2-24.4l2.7-4l0.8-1.2l0.7-0.6l1.3-4.5l-4-0.5l-1.6,4.6c-2.3,4-3.8,6-4.5,6l3.5,0.5L-111.2-24.4
				 M-106.9-45.7l4,0.6l0.3-1.6v-0.9l0.2-0.8l0.1-0.8l0.2-0.4l0.5-4.1l-4.2-0.7l0.2,1.5L-106.9-45.7"/>
			<path fill="#006800" d="M122.3-30.2l-0.2-2.7l-0.5-0.2v-1.1l-0.7-1.2l-1.2-2.7l-1-1.6c-2.6-0.2-5.2-0.7-7.8-1.4l1.3,2l2.2,7.5
				L122.3-30.2 M103.1-48.1h0.5l-0.9-0.1l-0.5-0.2h-0.1l0.6,0.2L103.1-48.1"/>
			<path fill="#FAFAFF" d="M-106-31.2l-2.5,4l0.7,0.5l2.6,0.1c2-1.6,4.2-7.5,6.7-17.8l-4.3-0.7l-1.4,6.4l-0.1,0.1l-1,2.9l-0.4,1
				C-104.9-34.2-105-33-106-31.2"/>
			<path fill="#FFFFFF" d="M-105.7-34.7l0.4-1l1-2.9l0.1-0.1l1.4-6.4l-4-0.6l-0.2,0.3l-0.5,3.7l-2.2,6.5L-105.7-34.7"/>
			<path fill="#545461" d="M-124.4-38.2l0.1,3.8l1.2,4.3l2.7-3c1.3,2.7,3,3.1,5.1,1.4c2.2-1.9,4-5.7,5.4-11.4l2.8-2.3l0.2-0.3
				l1.3-7.2l-0.2-1.5l0.2-2.7l-7.8,7.5c-0.4,2.1-1.1,3.4-2,4C-117.3-46.5-120.3-44-124.4-38.2"/>
			<path fill="#003700" d="M118.8-39.7c-2.5-4.2-5.6-6.7-9.3-7.4l-0.8-0.1h-0.5l-0.9-0.2l-1-0.2l-0.8-0.1l-0.8-0.2l-0.5-0.2h-0.5
				h-0.5l3.8,2l4,5C113.5-40.4,116.1-40,118.8-39.7"/>
			<path fill="#51515E" d="M-121.7-42.6l-0.5-0.1h-0.6l-0.5-0.2h-0.7h-0.7l0.4,4.7c4.1-5.8,7.1-8.3,9-7.4c0.9-0.6,1.6-1.9,2-4
				l7.8-7.5l0.3-3.1l0.2-5l-0.8-7.5l-1.4-3.7l-4.3,10.2c-1.1-1.1-2.5-1-4,0.3l-1.5,2.8l1.7,0.4h0.1l0.9,0.1l1.1,0.2l1,0.2l1,0.1
				l1.2,0.2l1.3,0.3l0.7,2.7v0.8l-0.3,1.2l-0.9,2.5l-1,0.5l-3.6-0.5l-0.2,0.8v0.9l-0.2,1.1l-0.8,2.4l-1,0.5l-3.5-0.4l0.2,1.4v0.6
				l-0.2,1.4l-0.8,2.6l-0.7,0.5l-0.2,0.2L-121.7-42.6"/>
			<path fill="#8F8FA4" d="M-121.7-42.6l0.5,0.2l0.2-0.2l-1.2-0.1L-121.7-42.6 M-124.7-42.9h0.7h0.5l-1-0.2L-124.7-42.9
				 M-128.2-43.6l0.5,0.2h0.5L-128.2-43.6 M-119.4-47.7l-3.7,0.1l-5.5-0.8v0.7l6.2,1l3-0.4V-47.7 M-125.5-50.9l-3.7-0.3l0.4,0.1
				L-125.5-50.9"/>
			<path fill="#C9C9E1" d="M-122.2-42.7l1.2,0.1l0.7-0.5l-9.4-1.1v0.3l0.2,0.2l0.7,0.1h0.6l1,0.2h0.2l0.7,0.2h0.6l0.5,0.1h0.7l1,0.2
				h0.2l0.5,0.2H-122.2 M-128.7-46.6l6.7,1l2.5-0.1l0.2-1.4l-3,0.4l-6.2-1L-128.7-46.6"/>
			<path fill="#3E3E47" d="M-124-42.9h0.7h-0.2H-124 M-124.7-42.9l0.2-0.2h-0.7L-124.7-42.9 M-127-43.4h-0.2h-0.5H-127 M-130-43.7
				h0.5l-0.2-0.2L-130-43.7 M-123-47.6l3.7-0.1l-0.2-1.4l-4.7-0.8l-0.8-0.2l-0.5-0.8l-3.3-0.2l0.3,2.7L-123-47.6"/>
			<path fill="#4F4F5B" d="M-130-43.7l0.3-0.2v-0.3l1-2.4l0.2-1.1v-0.7l-0.3-2.7l-0.4-0.1C-131-50.4-131.3-47.9-130-43.7 M-125-50.1
				l0.8-0.5l0.9-2.3l0.1-1.2v-0.8l-0.5-2.7l-0.3-0.1l-1.3,2l-0.2,4.8L-125-50.1"/>
			<path fill="#FAFAFE" d="M-129.7-44.2l9.4,1.1l0.8-2.6l-2.5,0.1l-6.7-1L-129.7-44.2"/>
			<path fill="#9898AE" d="M-119.5-49.1l3.5,0.4l-8.2-1.2L-119.5-49.1 M-114-52.7v-0.9l-9.2-1.3v0.8L-114-52.7 M-120-57.1v-0.1
				l-3.2-0.5h-0.8l0.3,0.1l3.5,0.5H-120"/>
			<path fill="#C5C5DE" d="M-115-49.2l-9.2-1.4l-0.8,0.5l0.8,0.2l8.2,1.2L-115-49.2 M-114-52.7l-9.2-1.4l-0.1,1.2l9.1,1.3L-114-52.7
				"/>
			<path fill="#F5F5FD" d="M-115-49.2l0.8-2.4l-9.1-1.3l-0.9,2.3L-115-49.2"/>
			<path fill="#C2C2DA" d="M-92.9-51.4l0.5-0.5l-5-1l-0.2,0.8L-92.9-51.4 M-110.2-53.9l1-0.5l-9.3-1.5l-0.3,0.5L-110.2-53.9
				 M-97.4-57.4l2.3-0.2l3.8,0.7v-0.7l-3.8-0.6l-2.2,0.1L-97.4-57.4 M-117.9-57.9l4.8,0.2l4.7,0.8l0.3-1.2l-9.7-0.6L-117.9-57.9"/>
			<path fill="#F4F4FC" d="M-97.4-52.9l5,1l1-1.8l0.1-3.2l-3.8-0.7l-2.3,0.2V-52.9 M-109.2-54.4l0.9-2.5l-4.7-0.8l-4.8-0.2l-0.7,2
				L-109.2-54.4"/>
			<path fill="#393942" d="M-114-53.6l0.2-0.8l-5-1l-1-0.2l-0.4-1.5l-3.5-0.5l0.5,2.7L-114-53.6"/>
			<path fill="#9A9AB0" d="M-113.9-54.4l3.6,0.5l-8.6-1.5L-113.9-54.4 M-97.2-58.1l2.2-0.1l3.8,0.6l-0.1-0.6l-5.9-0.9V-58.1
				 M-108-58.1v-0.8l-9.5-1l-0.2,1.2L-108-58.1 M-115.4-62.7l-1.7-0.4l-1.3-0.1l0.3,0.1L-115.4-62.7"/>
			<path fill="#50505C" d="M-118.9-55.4l0.3-0.5l0.7-2l0.1-0.8l0.2-1.2v-2.2l-0.5-1l-0.3-0.1l-1,1c-0.7,1.5-0.9,3.2-0.7,5v0.1h-0.2
				l0.4,1.5L-118.9-55.4"/>
			<path fill="#4E4E5A" d="M-123.2-57.7l3.2,0.5c-0.2-1.8,0-3.5,0.7-5l1-1l1.3,0.1l1.5-2.8c1.5-1.3,2.9-1.4,4-0.3l4.3-10.2l-1.1-3.5
				l-1.4-0.8l-2-1C-117.7-78.7-121.6-70.7-123.2-57.7"/>
			<path fill="#36363E" d="M-91.4-58.2l-0.5-0.7l-1.5-0.3l-1-0.2l-1.9-0.3h-0.3l-0.7-0.2v0.8L-91.4-58.2 M-117.5-59.9l9.5,1
				l-0.7-2.7l-1.3-0.3l-1.2-0.2l-1-0.1l-1-0.2l-1.1-0.2l-0.9-0.1h-0.1l-2.7-0.4l0.5,1V-59.9"/>
			<path fill="#52525F" d="M-101.4-59.7v0.1l0.1-1.1L-101.4-59.7"/>
		</g>
	</symbol>
</defs>
<use xlink:href="#新符号_11"  width="261.6" height="169.2" x="-130.8" y="-84.6" transform="matrix(1 0 0 -1 130.7808 84.5752)"/>
</svg>
