<?xml version="1.0" encoding="utf-8"?>
<!-- Generator: Adobe Illustrator 12.0.0, SVG Export Plug-In  -->
<!DOCTYPE svg PUBLIC "-//W3C//DTD SVG 1.1//EN" "http://www.w3.org/Graphics/SVG/1.1/DTD/svg11.dtd" [
	<!ENTITY ns_flows "http://ns.adobe.com/Flows/1.0/">
	<!ENTITY ns_svg "http://www.w3.org/2000/svg">
	<!ENTITY ns_xlink "http://www.w3.org/1999/xlink">
]>
<svg  version="1.1" xmlns="&ns_svg;" xmlns:xlink="&ns_xlink;" xmlns:a="http://ns.adobe.com/AdobeSVGViewerExtensions/3.0/"
	 width="136" height="240" viewBox="0 -0.8 136 240" enable-background="new 0 -0.8 136 240" xml:space="preserve">
<defs>
	<symbol  id="新符号_77" viewBox="-68 -119.2 136 238.3">
		<g>
			<path fill="#6BCFCF" d="M0.6,119.2h0.5l5-12.8l3.5-14.1l0.3-11.2l-1-4.3l2.8-15.8L13,45.1l0.3-17.3L11,8.3L10.1-8.1v-19.3
				l1.1-30.4l-14.8-0.1l-4.1-10.9l-3.6-6.8l-3.6-0.1l-7.3-7.8l-4.9-6.2l-14.6,1.5l-8.5,1.4l-5.8,1.3L-64-69.4l-2.6,7.1v9.9l2.9,18.8
				l0.3-0.2l-0.4-8.8v-0.3l1.3-0.3l-0.3-19.8v-0.7l4-7.6l10-1.9l20.3-1.8l6.6,7l1.3,20.8h6.5l4,10.3h14l-0.4,7.7v56.6l1,16.3v18.3
				L3,76.7l0.1,9.2L5,85.9l0.9,5.2l-1.8,15.8L0.6,119.2 M53.9-97.2l-4.6-5.3l-3.5-4l-0.9-0.8l4.8,5.5l0.1,0.1l0.5,0.7l0.3,0.3
				l0.3,0.3l2.4,2.7L53.9-97.2 M-46.1-105.8l0.3-0.3v-0.1H-46l-0.3,0.3l-2.6,3L-46.1-105.8 M31.1-113.2l-5.5-2.3l-0.4-0.2h-0.1
				l-0.3-0.1h-0.1l-7.3-1.7l-7.1-0.8l-0.6-0.8L8-119.1l2.1,2.7l10.9,1l6.3,1.1L31.1-113.2 M-30.8-113.3l9-2l6.8-0.8l6.9-3l-1.6,0.2
				l-2.1,1l-5.4,0.6l-7.5,1.7h-0.1l-0.3,0.1L-30.8-113.3"/>
			<path fill="#144545" d="M29.4,74.2l12.1-32.1l0.1-0.4l0.1-0.3l0.1-0.4l0.4-1.3l0.1-0.3l0.1-0.4l0.1-0.3l0.3-0.9l0.1-0.3l0.1-0.4
				l0.1-0.3l0.1-0.4l0.3-0.8l0.1-0.4l0.1-0.3l0.1-0.4l0.1-0.3l0.3-0.9l0.1-0.3l0.1-0.4l0.1-0.3l0.1-0.4l0.3-0.8l0.1-0.4l0.1-0.3
				l0.1-0.4l0.1-0.3l0.3-0.9l0.1-0.3l0.1-0.4l0.1-0.3l0.1-0.4l0.3-0.8l0.1-0.4l0.1-0.3l0.1-0.4l0.4-1.3l0.1-0.3l0.1-0.4l0.1-0.3
				l0.4-1.3l0.1-0.4l0.1-0.3l0.1-0.4l0.4-1.3l0.1-0.3l0.1-0.4l0.1-0.3l0.3-0.9l0.1-0.3l0.1-0.4l0.1-0.3l0.1-0.4l0.3-0.8l0.1-0.4
				l0.1-0.3l0.1-0.4l0.1-0.3l0.3-0.9l0.1-0.3l0.1-0.4l0.1-0.3l0.1-0.4l0.3-0.8l0.1-0.4L52,8.8l0.1-0.4l0.1-0.3l0.3-0.9l0.1-0.3
				l0.1-0.4l0.1-0.3L53,5.7l0.3-0.8l0.1-0.4l0.1-0.3l0.1-0.4l0.1-0.3L54,2.4l0.1-0.3l0.1-0.4l0.1-0.3l0.1-0.4l0.3-0.8l0.1-0.4
				L55-0.7l0.1-0.4l0.1-0.3l0.1-0.5l0.1-0.4l0.1-0.3l0.1-0.4l0.1-0.3L56-3.8l0.1-0.5l0.1-0.3l0.1-0.4l0.1-0.3l0.1-0.4l0.1-0.3
				l0.1-0.5L57-7.1l0.1-0.3l0.1-0.4l0.1-0.3l0.1-0.4l0.1-0.5l0.1-0.3l0.1-0.4l0.1-0.3l0.1-0.4l0.1-0.3l0.1-0.5l0.1-0.4l0.1-0.3
				l0.1-0.4l0.1-0.3l0.1-0.4l0.1-0.5l0.1-0.3l0.1-0.4l0.1-0.3l0.1-0.4l0.1-0.3l0.1-0.5l0.1-0.4l0.1-0.3l0.1-0.4l0.1-0.3l0.1-0.4
				l0.1-0.5l0.1-0.3l0.1-0.4l0.1-0.3l0.1-0.4l0.1-0.5l0.1-0.1v-0.3l0.1-0.4l0.1-0.3l0.1-0.4l0.1-0.3l0.1-0.5l6-38.2l-6.4-27L59-91.2
				l-0.1-0.2l-2-1.6l-3.8-4.8l-2.4-2.7l-0.3-0.3l-0.3-0.3l-0.5-0.7l-0.1-0.1l-4.8-5.5l-0.8-0.8l-6.9-2.9H37l-4.8-1.3l-7.1-1.3
				l-7.4-0.9l-7.8-0.3l-3.8-4.5H-6.3l-0.3,0.1h-0.1l-11.4,4.9l-8,0.8l-6.3,1.2l-4.8,1.3l-7.1,2.9l-1.8,1.8v0.1l-0.3,0.3l-2.8,2.9
				l-2.6,3v0.1l-0.8,0.8l-0.1,0.3l-0.6,0.7l-0.3,0.3l-0.6,0.7l-6.8,7.8l0.1,0.3l-0.9,0.6l-3.4,13.9l1.3-0.9l2.6-7.8l3.6-7.1l0.9-1.4
				l8.8-8.8l9-2.4l15.4-2l5.3-0.3l-1.8,8.4l5.8,6.6l10.4-0.1L0-83.1l20.6,0.5L22-69.3v4l-0.6,19.2l-1.4,21l2,16.8L21.6,8.8v0.6
				l5.9,0.4l-6.6,34l-2.8,17.8l-3.4,13.7l-0.3,1.3l0.3,4.8l-0.6,4.1l1.9-0.3l0.3,0.3l-3.9,8.2l-5,13.5l-4.3,8.8l-0.8,0.8l0.1,0.5
				l-1.4,2.1l1.1-0.3l13.4-21.3L29.4,74.2"/>
			<path fill="#6EC0C0" d="M61.3-20.6h0.1v-0.1L61.3-20.6"/>
			<path fill="#A0FEFE" d="M-63.8-33.7l1.8,11.3l12.6,40l5.9,17.8l1.5,5.6l12.3,32.3l10.5,18.5L-4,116.2l1.8,2.8l2.9,0.3l3.5-12.3
				l1.8-15.8L5,85.9l-1.9-0.1L3,76.7l1.4-14.8V43.7l-1-16.3v-56.6l0.4-7.7h-14l-4-10.3h-6.5L-22-67.9l-6.6-7l-20.3,1.8l-10,1.9
				l-4,7.6v0.7l0.3,19.8l-1.3,0.3v0.3l0.4,8.8L-63.8-33.7 M49.3-102.4v-0.2l-0.4-0.3l-1.5-1.8l-0.5-0.7l-0.3-0.3l-0.9-0.8
				L49.3-102.4 M-11.9-117.9l2.1-1l-8.4,1.1l-4,1l-2.6,1.2l7.5-1.7L-11.9-117.9 M9.8-118.9l0.6,0.8l7.1,0.8l7.3,1.7l-5.3-1.9
				L9.8-118.9"/>
			<path fill="#469A9A" d="M-64.8-74.7L-68-61.1l1.4,8.7v-9.9l2.6-7.1l8.1-15.9l5.8-1.3l8.5-1.4l14.6-1.5l4.9,6.2l7.3,7.8l3.6,0.1
				l3.6,6.8l4.1,10.9l14.8,0.1l-1.1,30.4v19.3L11,8.3l2.3,19.5L13,45.1l-1.4,16.1L8.9,76.9l1,4.3L9.6,92.3l-3.5,14.1l-5,12.8
				l1.4-2.1l-0.1-0.5l0.8-0.8l4.3-8.8l5-13.5l3.9-8.2L16,85.2l-1.9,0.3l0.6-4.1l-0.3-4.8l0.3-1.3l3.4-13.7l2.8-17.8l6.6-34l-5.9-0.4
				V8.8L22-8.3l-2-16.8l1.4-21L22-65.3v-4l-1.4-13.3L0-83.1l-3.6-7.3L-14-90.3l-5.8-6.6l1.8-8.4l-5.3,0.3l-15.4,2l-9,2.4l-8.8,8.8
				l-0.9,1.4l-3.6,7.1l-2.6,7.8L-64.8-74.7 M58.9-91.3l-5-5.8l-0.8-0.5l3.8,4.8L58.9-91.3 M37-110.8l-5.4-2.3l-0.4-0.1h-0.1
				l-3.9-1.2l-6.3-1.1l-10.9-1L8-119.1l-1.8-0.1l3.8,4.5l7.8,0.3l7.4,0.9l7.1,1.3L37-110.8 M-31.1-113.2l-5.9,2.3l4.8-1.3l6.3-1.2
				l8-0.8l11.4-4.9h-1.5l-6.9,3l-6.8,0.8l-9,2h-0.1L-31.1-113.2"/>
		</g>
	</symbol>
</defs>
<use xlink:href="#新符号_77"  width="136" height="238.3" x="-68" y="-119.2" transform="matrix(1 0 0 -1 68 119.1748)"/>
</svg>
