<svg  version="1.1" xmlns="&ns_svg;" xmlns:xlink="&ns_xlink;" xmlns:a="http://ns.adobe.com/AdobeSVGViewerExtensions/3.0/"
	 width="94" height="278" viewBox="-0.8 -0.1 94 278" enable-background="new -0.8 -0.1 94 278" xml:space="preserve">
<defs>
	<symbol  id="新符号_12" viewBox="-46.3 -138.9 92.5 277.8">
		<g>
			<path fill="#8181FF" d="M-12,138.9h7.2l6.6-0.5l5.5-0.8l-12.8-1.5h-0.8h-0.9v-0.2h-0.5l-0.1,0.2l-10.4,2.3L-12,138.9 M7.5,113.6
				h2.3l0.5-1L7.5,113.6 M13.3,113.4l2.4-0.1l0.5-0.2l-0.4-2.5l-0.8,0.3l-2.5,0.9L13.3,113.4 M13.8-86.2l2-1.9l2.2-2l0.2-0.6
				l0.5-4.5l-0.9,1l-8,11.5L13.8-86.2"/>
			<path fill="#8282FF" d="M-18.3,138.4l10.4-2.3h-1l-17,0.5l2.3,1L-18.3,138.4 M7.3,137.6l3.5-1l-16.3-0.5L7.3,137.6"/>
			<path fill="#8383FF" d="M-25.9,136.6l17-0.5h1l0.1-0.2h-0.8l-17-0.5H-26L-25.9,136.6 M-7.3,136.1h0.9h0.8l16.3,0.5h0.5l0.5-1.2
				l-17.3,0.5h-0.8h-0.9V136.1 M6.8-80.1l1.4-0.8l1-1.3v-0.2l0.5-2.8L7-82.6L6.8-80.1"/>
			<path fill="#8484FF" d="M-7.8,135.9l-8.6-2.5h-0.5l-5.2,0.9h-0.5l-3,1.1l17,0.5H-7.8 M-6.4,135.9h0.8l17.3-0.5l-2-1.1H9.3
				l-4.6-0.9l-6.5-0.5l-5.4,3H-6.4"/>
			<path fill="#8585FF" d="M-7.8,135.9h0.5l5.4-3h-7.9l-6.6,0.5L-7.8,135.9"/>
			<path fill="#7676FC" d="M-26,135.4h0.5l3-1.1l-0.2-6.9l-3.1-53.1v19l-0.2,24.5V135.4"/>
			<path fill="#7373FB" d="M-22.5,134.3h0.5l5.2-0.9l-0.2-4l-5.3-53.1l-0.4,51.1L-22.5,134.3"/>
			<path fill="#7373FA" d="M9.3,134.3h0.5l-0.1-1.7l0.1-0.5v-1l-0.3-3.3l-1.2-12l-0.5-1l-0.3-1.2l-0.2-1.5l0.4-1.3v-0.7L4.1,75.8
				l0.6,53.8l-0.1,3.8L9.3,134.3"/>
			<path fill="#7575FC" d="M11.8,135.4l0.2-1.8l-0.2-0.3v-0.2l-1.3-0.2l-0.8-0.3l0.1,1.7L11.8,135.4"/>
			<path fill="#6E6EF2" d="M-16.9,133.4h0.5l6.6-0.5l-0.1-4L-17,72.8v56.6L-16.9,133.4"/>
			<path fill="#848498" d="M15.5,133.3l1.7-0.2l1.8-0.3l-2.8-0.4h-0.7h-0.3h-0.4l-0.3,0.2l-0.7-0.2l-0.1,0.2l-3.2,0.3l1.3,0.2
				l1.7,0.2H15.5"/>
			<path fill="#7373FC" d="M-9.8,132.9h7.9l-0.2-3.6l-8-58.5l0.2,58.1L-9.8,132.9"/>
			<path fill="#7171FA" d="M-1.9,132.9l6.5,0.5l0.1-3.8l-7.3-57.3l0.5,57L-1.9,132.9"/>
			<path fill="#858598" d="M10.5,132.9l3.2-0.3l0.1-0.2l-4.1,0.2L10.5,132.9 M19,132.8l0.7-0.2l-3.5-0.2L19,132.8"/>
			<path fill="#858599" d="M9.6,132.6l4.1-0.2l0.7,0.2l0.3-0.2h0.4h0.3h0.7l3.5,0.2l0.5-0.3l-0.9-0.4l-0.8-0.3h-2h-2h-2l-1.5,0.3
				l-1.2,0.2L9.6,132.6"/>
			<path fill="#79798B" d="M9.8,132.1l1.2-0.2l-0.7-18.5l-0.5,0.2l-0.5,1l0.2,0.5l-0.2,0.7v0.1l0.2,2.2v5.3l0.2,1.4l-0.2,3l0.2,3
				l0.1,0.3V132.1 M9.6,110.4l0.5-0.5v-1.8L8.8,87.9v0.5v5.4l0.2,2v5.5l0.2,2v5.3v1l0.3,0.5L9.6,110.4"/>
			<path fill="#737385" d="M20.1,132.3v-0.7v-4l-0.2-1.7v-2.6l-0.2-1l-0.1-4h-0.5l0.1,13.6L20.1,132.3"/>
			<path fill="#737384" d="M19.3,131.9l-0.1-13.6l-1-0.9h-0.4v0.9l0.2,2l0.5,11.3L19.3,131.9 M9.5,118.1l-0.2-2.2l-0.1,0.2
				L9.5,118.1 M9.1,109.6v-1v0.7V109.6 M18.3,104.9l-0.6-7.5v7.9L18.3,104.9 M8.8,88.4v-0.5v-0.6V88.4"/>
			<path fill="#757587" d="M11,131.9l1.5-0.3L12,117.9l-1.7-21.8l-0.1,12v1.8v1.9l0.1,0.8v0.8L11,131.9"/>
			<path fill="#6F6F80" d="M12.5,131.6h2L14,120.1l-0.7-6.7l-0.8-1.6v-0.5l0.5-2l-1.3-18.7l0.3,27.3L12.5,131.6"/>
			<path fill="#747486" d="M14.5,131.6h2l-0.2-9l-0.1-0.8v-1.7l-0.5-4.5l-1.7-1.5v6L14.5,131.6 M14,108.4l1.2-1.3l-1.7-20.5
				L14,108.4"/>
			<path fill="#707081" d="M18.5,131.6L18,120.3l-0.2-2v-0.9l-0.1-0.1v-0.2l-1.4-0.8l-0.6-0.7l0.5,4.5v1.7l0.1,0.8l0.2,9H18.5
				 M15.6,106.9l0.3-0.3v-0.2l0.7-0.1l0.1-0.5l-1-12.9v-1.5l-0.1-1.1l-0.4-10h-2.1l0.3,6.3l1.7,20.5L15.6,106.9 M9.1,73.1v-1v0.5
				V73.1 M9,57.8l0.2-10.7v-1.3L9,44.1L8.6,32.9l-1.2,0.7v0.5l0.2,0.5v1.3v2.2L9,57.8"/>
			<path fill="#727283" d="M9.8,131.1l-0.1-0.3l-0.2-3L9.8,131.1 M18.3,104.9l0.7-0.1l-0.8-24L17,80.4l0.5,13.9l0.2,0.6v2.5
				L18.3,104.9 M8.6,81.1l0.8-0.2l0.2-0.3l-0.5-7.5l-0.4,0.5l-0.3,0.7l0.2,0.8v0.5l-0.2,0.7v0.1v2.5l0.2,0.4V81.1 M9.1,72.1V61.8
				l-0.2-2v-2L7.6,38.1v4l0.1,1.7v5.6L8,51.1v5.7l0.2,1.8v5.3v3l0.1,2v1.5l-0.1,0.2l0.1,0.7l0.5,0.6L9.1,72.1"/>
			<path fill="#7373F9" d="M9.5,127.8l0.2-3l-0.2-1.4v-5.3l-0.3-2l-0.9-0.3L9.5,127.8 M7.6,110.1l0.5-0.2l0.3-0.3l0.7-0.3v-0.7v-5.3
				l-0.2-2v-5.5l-0.2-2v-5.4v-1.1v-0.9l-0.1-2.5v-2.8v-1.8l-0.2-0.4v-2.5H8l-0.8-1l-0.5-1.1l-0.2-1.2l0.3-1.3l0.5-0.9l-3.5-1
				l0.4,5.9L7.6,110.1"/>
			<path fill="#7676FF" d="M43.5,121.9l1.7-2.1l-3.7-8.9l-0.3-0.8l-0.5-0.7l0.1,0.2l-0.1,0.7l-3.4,6.5l1.9,3.6l2,1.7L43.5,121.9"/>
			<path fill="#8787FF" d="M39.1,120.4h-0.9l-7.5-0.1l10.4,1.8L39.1,120.4"/>
			<path fill="#9999FF" d="M39.1,120.4l-1.9-3.6l-0.5,0.1l-8.5,2l10,1.5H39.1 M17.6,117.1l-0.9-1.5h-1.1l0.6,0.7L17.6,117.1
				 M9.1,116.1l0.1-0.2v-0.1h-1L9.1,116.1 M29,79.8l11,1.5l-2-2L29,79.8 M17.8-94.2l0.9-1l0.3-0.9l-3.2-5.6l-0.5,1.5l-5.1,13.8
				L17.8-94.2"/>
			<path fill="#9090FF" d="M38.3,120.4l-10-1.5l1.5,1.2l1,0.2L38.3,120.4"/>
			<path fill="#8686FF" d="M29.8,120.1l-1.5-1.2l-0.1-0.1h-1l-7.5-0.5L29.8,120.1"/>
			<path fill="#9A9AFF" d="M28.3,118.9l8.5-2l-10-0.6H26l-8.3,1l0.1,0.1h0.4l9,1.4h1L28.3,118.9 M8.3,115.8h1l0.2-0.7l-1.7-0.3
				L8.3,115.8"/>
			<path fill="#8F8FFF" d="M19.6,118.3l7.5,0.5l-9-1.4l1,0.9H19.6"/>
			<path fill="#9B9BFF" d="M17.6,117.3l8.3-1l-9.2-0.7l0.9,1.5V117.3 M5.1-13.1l1.3-0.3l0.2-1l-1.4,0.2l-0.6,0.1L5.1-13.1
				 M13.8-14.1h0.4l7.3-4.1l-7.8,1.8l-0.5,0.2L13.8-14.1 M10.6-15.2l1.6-0.7l-1.8,0.5L10.6-15.2 M22-18.6l1.2,3.4l7.3-5.4L22-18.6
				 M5-85.1l2,2.5l2.7-2.6l0.1-0.9l-2.1-3.5l-1.2,2.2L5-85.1"/>
			<path fill="#9494FF" d="M36.8,116.9l0.5-0.1l-1.5-4.7l-9,4l-1.3-3.3l-8.7,2.6v0.2l9.2,0.7h0.8L36.8,116.9 M8.6,75.1l-0.2-0.8H6.6
				l0.5,1.1L8.6,75.1 M12.8,73.9l2.2-0.5l-2.3,0.2L12.8,73.9 M-37-91.4l8.8,4l-8.3-9.8l-0.5-0.2l-0.5,5.5L-37-91.4"/>
			<path fill="#7575FF" d="M46.1,115.9l0.1-4.6l-5.3-2h-0.2l-0.1-0.4l-5.5-2l0.6,5.2l1.5,4.7l3.4-6.5l0.1-0.7l-0.1-0.2l0.5,0.7
				l0.3,0.8l3.7,8.9L46.1,115.9"/>
			<path fill="#9595FF" d="M15.6,115.6h1.1v-0.2l-0.6-2.3l-0.5,0.2l-1.9,0.5l0.2,0.3L15.6,115.6 M9.5,115.1l-0.2-0.5l-1.5,0.2
				L9.5,115.1"/>
			<path fill="#8E8EFF" d="M7.8,114.8l1.5-0.2l0.5-1H7.5L7.8,114.8 M13.8,113.8l1.9-0.5l-2.4,0.1L13.8,113.8 M-25.5-81.1l-2.2-1.6
				l0.7,0.8L-25.5-81.1"/>
			<path fill="#717182" d="M14,114.1l-0.2-0.3l-0.5-0.4l0.7,6.7V114.1 M13.5,109.1l0.5-0.7l-0.5-21.8l-0.3-6.3l-1.9,0.1l0.4,10.2
				l1.3,18.7L13.5,109.1"/>
			<path fill="#777789" d="M9.8,113.6l0.5-0.2v-0.8L9.8,113.6 M10.1,111.8v-1.9l-0.5,0.5l0.3,0.7L10.1,111.8 M10.3,96.1v-0.2
				l-0.1-2.8L9.5,80.9l-0.8,0.2v2.8l0.1,2.5v0.9v0.6l1.4,20.2L10.3,96.1"/>
			<path fill="#8D8DFF" d="M16.8,115.4l8.7-2.6l-9.3,0.3L16.8,115.4 M25.5,112.8l1.3,3.3l9-4L25.5,112.8 M-28.3-83.2l0.5-3.9
				l-0.5-0.3l-8.8-4l0.7,0.8l7.8,7L-28.3-83.2"/>
			<path fill="#8080FF" d="M25.5,112.8l0.3-0.2l-0.8-3.7l-8.8,4.2L25.5,112.8 M18-90.1l0.5-0.5l4.5-4l1-1l1.7-1.5l0.3-0.3l0.2-0.2
				l0.3-1.1l1.3-6.5l-0.6,0.8l-9,13.7L18-90.1"/>
			<path fill="#7F7FFF" d="M25.5,112.8l10.3-0.7l-0.6-5.2l-0.4,0.2l-9,5.5L25.5,112.8"/>
			<path fill="#7C7CFF" d="M10.3,112.6l-0.1-0.8l-2.9,0.3l0.2,1.5L10.3,112.6 M12.5,111.8l2.5-0.9l-2.5,0.4V111.8"/>
			<path fill="#6C6CED" d="M7.3,112.1l2.9-0.3l-0.2-0.7L7.3,112.1 M12.5,111.3l2.5-0.4l0.8-0.3l0.4-2.3l-1.7,0.6l-1.5,0.4
				L12.5,111.3"/>
			<path fill="#6262DB" d="M7.3,112.1l2.7-1l-0.3-0.7l-2,0.4L7.3,112.1 M13.5,109.1l-0.5,0.2l1.5-0.4L13.5,109.1"/>
			<path fill="#7B7BFF" d="M15.8,110.6l0.4,2.5l8.8-4.2l-8.8,1.7H15.8"/>
			<path fill="#6161DA" d="M15.8,110.6h0.4l9-5.2l-8.4,2.5l-0.6,0.2v0.2L15.8,110.6"/>
			<path fill="#4A4AAF" d="M9.6,110.4l-0.2-0.3l-1.8,0.7L9.6,110.4 M13.5,109.1l1-0.2l1.7-0.6v-0.2l0.1-1.5h-0.1H16l-0.3,0.3
				l-0.5,0.2l-1.2,1.3L13.5,109.1 M27.3-112.6l1.2,2.5l-0.2-3.1l-1.1-2.7l-1.5-2.5L27.3-112.6"/>
			<path fill="#3D3D95" d="M7.6,110.1v0.7l1.8-0.7l-0.3-0.5H8.6H8.5l-0.3,0.3L7.6,110.1"/>
			<path fill="#19194B" d="M8.5,109.6h0.2h0.5v-0.3L8.5,109.6"/>
			<path fill="#7474FF" d="M40.8,109.3H41l5.3,2l-0.6-5l-1.4-4.5l-3.5,7.1l-0.1-0.3l-0.2-0.2l-0.2-1.3l-3.8-8.8l-1,3.8l-0.3,4.8
				l5.5,2L40.8,109.3"/>
			<path fill="#6B6BEC" d="M25,108.9l0.5-0.3l0.2-3.5l-0.5,0.3l-9,5.2L25,108.9"/>
			<path fill="#7A7AFF" d="M25,108.9l0.8,3.7l9-5.5l-9.3,1.5L25,108.9"/>
			<path fill="#7373FE" d="M40.8,108.9l3.5-7.1l-1.8-3.5l-2.2-2h-2.1l2.5,10.3l-0.4,0.5l0.2,1.3l0.2,0.2L40.8,108.9"/>
			<path fill="#3D3D94" d="M16.1,108.1l0.6-0.2l8.4-4.8l-6.2,2.3l-2.3,0.9l-0.4,0.3L16.1,108.1"/>
			<path fill="#6A6AEB" d="M34.8,107.1l0.4-0.2l0.3-4.8l-0.5,0.2l-9.5,6.3L34.8,107.1"/>
			<path fill="#7373FF" d="M40.3,107.1l0.4-0.5l-2.5-10.3l-0.4,0.1l-1.3,1.9L40.3,107.1"/>
			<path fill="#242462" d="M16,106.6h0.2h0.1l0.4-0.3l-0.7,0.1V106.6 M25.1,103.1l1.1-0.5l0.5-0.5l0.5-1l-2.3,1.2l-6,3.1L25.1,103.1
				"/>
			<path fill="#18184A" d="M16.6,106.3l2.3-0.9l6-3.1l-5.7,2.3l-0.3,0.2l-0.7,0.1l-0.6,0.4l-0.7,0.5h-0.2L16.6,106.3 M26.8,102.1H27
				l1.2-0.5l7.3-4l-8.2,3.5L26.8,102.1"/>
			<path fill="#6E6E7E" d="M16.8,105.8H17l0.7-0.5v-7.9v-2.5l-0.2-0.6L17,80.4l-1.7-0.1l0.4,10l0.1,1.1v1.5L16.8,105.8"/>
			<path fill="#4A4AAD" d="M25.1,105.4l0.5-0.3l0.6-2.5l-1.1,0.5l-8.4,4.8L25.1,105.4 M13-18.6l0.5-0.1l7.3-5.4l-6.1,2.9l-1.4,0.6
				l-0.1,0.4L13-18.6 M28-116.6h0.2l-0.4-3.5l-3.1-6.5l-0.2-0.5l-0.2,0.4l0.4,0.1l-0.2,0.2l2.5,7.3L28-116.6"/>
			<path fill="#6060D9" d="M25.6,105.1l-0.2,3.5l9.5-6.3l-8.8,2.6L25.6,105.1"/>
			<path fill="#3C3C92" d="M25.6,105.1l0.5-0.2l9.5-6.1l-7.5,2.8l-1.2,0.5h-0.2l-0.5,0.5L25.6,105.1"/>
			<path fill="#6D6D7E" d="M19,104.8l0.3-0.2l-0.6-23.7l-0.5-0.1L19,104.8"/>
			<path fill="#4949AC" d="M26.1,104.9l8.8-2.6l0.5-0.2l1-3.8l-0.8,0.5L26.1,104.9 M21.6-22.1H22l8-6.6l-7.2,3.3l-0.6,0.3H22
				l-0.3,0.5V-22.1 M15.1-121.4l0.1-2.8v-0.2l-0.1-0.2l-0.4-0.1l-12.3-3.5l12.2,6.6L15.1-121.4 M-28.9-125.9l0.3-0.2l0.2-0.1
				l-0.2-3.2l-0.3,0.2l-10.5,5.6L-28.9-125.9"/>
			<path fill="#242461" d="M35.6,98.8l0.8-0.5l1.3-1.9l-2.3,1.2l-7.3,4L35.6,98.8"/>
			<path fill="#6E6E7F" d="M10.3,96.1l1.7,21.8l-0.3-27.3l-0.4-10.2l-0.5-12.1l-0.1-2.4v-0.6L9.1,47.1L9,57.8v2l0.2,2v10.3v1
				l0.5,7.5l-0.2,0.3l0.7,12.2l0.1,2.8V96.1"/>
			<path fill="#6F6FF7" d="M40,81.3l2.3,0.1l-2.1-10l0.1-0.6L40,69.9l-0.2-0.3l-0.1-0.3v0.1l-0.2,0.5l-3.3,5.7l-0.4,0.2l2.2,3.5
				L40,81.3 M-2.5,72.3l-0.2-3.2h-7.5l0.2,1.7l8,58.5L-2.5,72.3"/>
			<path fill="#6C6C7C" d="M18.6,80.9l-0.2-2.6h-0.3v2.5L18.6,80.9 M8.1,66.1v0.8v-3V66.1"/>
			<path fill="#6B6B7B" d="M17,80.4l1.2,0.4v-2.5l-0.7-0.9h-0.7L17,80.4 M17.5,65.8l-1.2-16l0.4,16.5L17.5,65.8 M8.1,66.1v-2.2H8
				L8.1,66.1 M8.6,32.9L8,23.3l-0.3,0.1l-0.4,0.7l0.2,0.8v0.5l-0.2,0.9v0.3H7.1l0.1,0.7l0.2,1v5.3L8.6,32.9 M7.8,21.9h0.4l-0.2-9
				L7.8,9.4V9.1L6.6-6.4v4l0.1,1.5v6v1.2v1.3v2.2L7,10.9v1.5l0.2,1.5v5.9v1l0.1,0.3l-0.1,0.2L7.8,21.9"/>
			<path fill="#696979" d="M11.3,80.4l1.9-0.1l-0.4-6.4l-0.1-0.3L12,72.3l-0.2-0.5l0.7-1.7l0.2-0.5v-0.8l-2.2-26.2l0.2,22.7v0.6
				l0.1,2.4L11.3,80.4 M17,80.4l-0.2-3v-0.1L15,76.1l0.3,4.2L17,80.4 M15,67.3h0.3l0.4-0.2l0.5-0.2v-0.5l-1.7-22.1L15,67.3"/>
			<path fill="#6D6D7D" d="M13.1,80.3h2.1L15,76.1l-0.3-0.5l-1.9-1.7L13.1,80.3 M12.6,68.8v0.8l1.8-2l-2.2-28L12.6,68.8"/>
			<path fill="#6F6FF6" d="M44,79.4l-3.7-8.6l-0.1,0.6l2.1,10L44,79.4"/>
			<path fill="#A1A1FF" d="M29,79.8l9-0.5l-10.3-1L29,79.8 M10.1-86.4l5.1-13.8L7.6-89.9l-0.2,0.2l0.2,0.1l2.1,3.5L10.1-86.4"/>
			<path fill="#9898FF" d="M29,79.8l-1.3-1.5h-0.2h-1.7h-7.3L29,79.8 M16.8,77.4h0.7H17H16.8 M6,25.3l1.5-0.4l-0.2-0.8l-1.6,0.2
				L6,25.3 M15,24.9l0.3-0.1l7.7-3.9l1.3,3.2l8-5l-9,1.5L23,20.9l-8.2,1.5h-0.5l-0.1,0.2L15,24.9 M11.3,23.1l0.2,0.3l2.2-0.6
				L11.3,23.1"/>
			<path fill="#A8A8FF" d="M38,79.3l-2.2-3.5l-8.1,2.5L38,79.3 M-46.3-108.1h0.4l13.3,4.7l-7.3-12.2l-0.4-0.3l-0.1,0.2l-0.4,0.3
				l-0.1,0.3l-0.4,0.4l-0.1,0.3l-0.5,0.5l-0.2,0.3l-0.3,0.4l-0.2,0.3l-0.5,0.5l-0.2,0.3l-0.3,0.4l-0.2,0.3l-0.5,0.5l-0.5,0.7
				l-0.1,0.3l-0.7,0.5l-0.5,1.2L-46.3-108.1"/>
			<path fill="#A0A0FF" d="M18.5,78.3h7.3l-8.3-0.9l0.7,0.9H18.5 M16.8,77.4H17l-0.2-0.1V77.4"/>
			<path fill="#A7A7FF" d="M25.8,78.3h1.7h0.2l8.1-2.5l-9.6-0.2H26l-8.5,1.8L25.8,78.3 M17,77.4l-0.7-1.8h-0.8h-0.8l0.3,0.5l1.8,1.2
				L17,77.4 M8.5,76.4v-0.1L8,76.4H8.5"/>
			<path fill="#A6A6FF" d="M17.5,77.4l8.5-1.8h-9.3h-0.4l0.7,1.8H17.5 M8,76.4l0.5-0.1l0.2-0.7l-1.5-0.2L8,76.4 M-25.4-84.1l0.6-0.5
				l-1.8-1.1L-25.4-84.1"/>
			<path fill="#7474FC" d="M-22.4,76.3l-0.2-5.4l-3.3,1.9v0.5v1l3.1,53.1L-22.4,76.3"/>
			<path fill="#6C6CF1" d="M-22.4,76.3l5.3,53.1V72.8l-0.2-3l-5.3,1.1L-22.4,76.3 M39.1,66.8l0.5,1.5l1.6-9.2l-2-2.2l0.2,9.5
				L39.1,66.8"/>
			<path fill="#6E6EF6" d="M44.8,75.9l-5.1-7l-4.9,2l-0.3,0.2l1.7,4.5l3.3-5.7l0.2-0.5v-0.1l0.1,0.3l0.2,0.3l0.3,0.9l3.7,8.6
				L44.8,75.9"/>
			<path fill="#6E6EF5" d="M4.1,75.8l-0.4-5.9l-6.5-0.8l0.2,3.2l7.3,57.3L4.1,75.8 M45,71.8l-5.2-2.9h-0.1l-0.2-0.3l-5.3-2.7
				L34,66.1l0.8,4.8l4.9-2l5.1,7L45,71.8"/>
			<path fill="#9C9CFF" d="M36.1,75.6l-1.7-4.5l-8.3,4.5l-1-3.5l-0.5,0.2l-8,3.3H26h0.2l9.6,0.2L36.1,75.6"/>
			<path fill="#9D9DFF" d="M7.1,75.4l1.5,0.2v-0.5L7.1,75.4 M15.5,75.6h0.8l-0.6-2.3L15,73.4l-2.2,0.5l1.9,1.7H15.5"/>
			<path fill="#9393FF" d="M16.3,75.6h0.4l8-3.3l-8.7,1h-0.3L16.3,75.6 M25.1,72.1l1,3.5l8.3-4.5l-9.2,1H25.1"/>
			<path fill="#8282FD" d="M6.6,74.3h1.8l0.3-0.7L6.6,74.3 M12.6,73.6l2.3-0.2l0.7-0.1l-0.2-2.5l-1.2,0.5l-2.3,1L12.6,73.6"/>
			<path fill="#7979FC" d="M6.6,74.3l2.1-0.7l0.4-0.5v-0.5l-2,0.3l-0.7,0.2L6.6,74.3 M12,72.3l2.3-1l-2.5,0.5L12,72.3"/>
			<path fill="#7979FB" d="M15.6,73.3H16l8.3-4.7l-8.8,2.2L15.6,73.3"/>
			<path fill="#5A5ACF" d="M6.5,73.1l0.7-0.2l1.6-1l-0.5-0.6l-0.6,0.3L7,71.8H6.8L6.5,73.1 M12.5,70.1l1.3-0.7l-1.1,0.2L12.5,70.1"
				/>
			<path fill="#6E6EF3" d="M-17,72.8l7.2,56.1L-10,70.8l-0.2-1.7l-7,0.7L-17,72.8"/>
			<path fill="#6565E4" d="M7.1,72.9l2-0.3v-0.5l-0.4-0.2L7.1,72.9 M14.3,71.3l1.2-0.5v-0.2l0.2-2l-1.9,0.8l-1.3,0.7l-0.7,1.7
				L14.3,71.3 M-17.3,69.8l7-0.7l-0.1-3.3l-0.2-53.4l-0.3-1.8l-6.5,0.7l0.1,3.5l-0.1,50.3L-17.3,69.8 M42.5,25.6l-4.3-6.2l3.3,9
				L42.5,25.6 M32.3,19.1l1.5,4.5l3.4-4.8l0.1-0.2v-0.5l-4.6,0.8L32.3,19.1 M3,16.9l-0.3-5.3l-6.2-1l0.2,3.2l7,52.8L3,16.9"/>
			<path fill="#8181FD" d="M24.6,72.3l0.5-0.2l-0.9-3.5L16,73.3L24.6,72.3"/>
			<path fill="#7878FA" d="M25.1,72.1h0.1l8.7-6l-8.8,2.2H25h-0.3l-0.4,0.3L25.1,72.1"/>
			<path fill="#343481" d="M7,71.8l0.7-0.2l0.6-0.3l-0.1-0.7l-0.4,0.2l-0.3,0.1H7.3l-0.5,0.9H7 M15,67.4l0.3-0.1H15V67.4"/>
			<path fill="#8080FC" d="M34.5,71.1l0.3-0.2L34,66.1l-8.7,6L34.5,71.1"/>
			<path fill="#6D6DF3" d="M-22.5,70.9l-0.2-6.1l-3-47.2l-0.1,55.2L-22.5,70.9 M39.8,68.9l4.7-2l-1.3-4.3l-3.7,6l0.2,0.3H39.8
				 M39.1,66.8l-3.7-8.7l-0.3,0.2l-0.7,3.1l4.7,6.4V66.8"/>
			<path fill="#6A6AEE" d="M7.3,70.9h0.2l0.3-0.1l0.4-0.2l0.1-0.2v-1.5l-0.1-2v-0.8L8,63.9l-5-47l0.7,49.7l0.1,3.3L7.3,70.9
				 M-17.3,69.8l-0.1-4.7l-5-47l-0.4,46.7l0.2,6.1L-17.3,69.8 M-10.3,69.1h7.5l-0.1-3l-7.7-53.7l0.2,53.4L-10.3,69.1"/>
			<path fill="#6565E3" d="M15.5,70.8l8.8-2.2l0.4-0.3v-3L24,65.6l-8.5,5V70.8 M42.6,21.6l-5.4-3.7l-0.1-0.3L32,14.3l0.7,4.6
				l4.6-0.8l0.2,0.2v0.3l0.7,0.8l4.3,6.2L42.6,21.6"/>
			<path fill="#41419D" d="M12.6,69.6l1.1-0.2l1.9-0.8v-0.2v-1.3l-0.4,0.2L15,67.4l-0.3,0.2h-0.2L12.6,69.6"/>
			<path fill="#6868EA" d="M3.8,69.9l-0.1-3.3l-7-52.8l0.5,52.3l0.1,3L3.8,69.9"/>
			<path fill="#6D6DF4" d="M39.8,68.9l5.2,2.9l-0.5-4.9L39.8,68.9 M39.5,68.6v-0.2l-0.3-0.6l-4.7-6.4l-0.3,0.2v4.3L39.5,68.6"/>
			<path fill="#5A5ACD" d="M15.6,68.6l-0.2,2l8.5-5l-7.7,2.7l-0.6,0.1V68.6 M-4.4-43.1l-0.2-3.1L-11-89.9l-0.3-0.2l-0.4,0.2
				l0.4,43.8l0.1,2.9L-4.4-43.1 M5.6-52.6l0.8-0.5L7-53.6L5.3-77.1L5.6-52.6"/>
			<path fill="#6C6CF2" d="M39.5,68.6l3.7-6l-1.9-3.5l-1.6,9.2l-0.5-1.5l0.3-0.4l-0.2-9.5l-2-0.3h-0.5l-1.3,1.5l3.7,8.7v1l0.3,0.6
				V68.6"/>
			<path fill="#333381" d="M15.6,68.4l0.6-0.1l7.7-4.7l-4.7,1.8l-3.1,1.5l-0.5,0.2V68.4"/>
			<path fill="#5959CC" d="M24.6,68.3H25h0.2l8.5-6.4l-8.2,2.9l-0.7,0.3l-0.1,0.2V68.3 M5.8-39.7v-2.2l-0.1-3.2l-0.2-0.6v-1L1-86.7
				l0.5,41.5l0.2,3.3L5.8-39.7 M-22.8-40.4l5.2-2l-0.3-4.5l-4.7-40l-0.3,0.5l-1.9,1.8l-0.6,0.5l0.1,2.7l2.4,32.8L-22.8-40.4"/>
			<path fill="#686878" d="M14.6,67.6l0.3-0.2v-0.1l-0.5-23v-2.2l-0.2-0.5L14,32.4h-2l0.2,4.7l0.1,1.5v1l2.2,28H14.6"/>
			<path fill="#6161CC" d="M16.1,66.9l3.1-1.5l2.4-1.3L18,65.6l-0.5,0.2l-0.8,0.5l-0.2,0.1h-0.3V66.9"/>
			<path fill="#666676" d="M16.1,66.4h0.3l0.2-0.1l-0.4-16.5v-1.9l-0.1-1.1l-0.5-14.2L14,32.4l0.3,9.2l0.2,0.5v2.2L16.1,66.4"/>
			<path fill="#6464E1" d="M34,66.1l0.2-0.2v-4.3l-0.5,0.3l-8.5,6.4L34,66.1 M37.3,17.9l4.7-1l-1.2-4.3l-3.6,5L37.3,17.9 M37,16.1
				l-3.7-9L33,7.3l-0.8,2.8l4.6,6.3L37,16.1"/>
			<path fill="#6A6A7A" d="M17.5,65.8l0.5-0.2l-1.2-32.5l-1.1-0.5l0.5,14.2l0.1,1.1v1.9L17.5,65.8 M10.5,42.6l2.2,26.2l-0.4-29.2v-1
				l-0.1-1.5L12,32.4l-1.8,0.2L10.5,42.6"/>
			<path fill="#41419C" d="M24,65.6l0.7-0.3l0.1-0.2l0.7-2.3L24,63.6l-7.7,4.7L24,65.6"/>
			<path fill="#333380" d="M24.8,65.1l0.7-0.3l8.7-5.9L28,61.4l-1.5,0.7h-0.2L26,62.4l-0.5,0.4L24.8,65.1"/>
			<path fill="#434398" d="M19.3,65.4l4.7-1.8l1.5-0.8l0.5-0.4l0.3-0.3l0.2-0.3l-4.8,2.3L19.3,65.4"/>
			<path fill="#6969EC" d="M8,63.9h0.2v-5.3L8,56.8v-5.7l-0.2-1.7v-5.6l-0.1-1.7v-4v-2.2v-1.3l-0.2-0.5v-0.5v-5.3l-0.2-1l-0.1-0.7
				l-0.5-0.3l-0.7-1l-0.3-1l-0.2-1.2l0.2-1L6,21.3l1.2-0.5v-1v-5.9L7,13.4l-4.3-1.8L3,16.9L8,63.9"/>
			<path fill="#6262CB" d="M26.3,62.1h0.2l1.5-0.7l4.7-2.6l-6.2,3L26.3,62.1"/>
			<path fill="#40409A" d="M33.6,61.9l0.5-0.3l0.3-0.2l0.7-3.1l-1,0.6l-8.7,5.9L33.6,61.9"/>
			<path fill="#444498" d="M28,61.4l6.2-2.5l1-0.6l0.3-0.2l1.3-1.5l-4.1,2.2L28,61.4"/>
			<path fill="#686877" d="M9.1,47.1l1.5,18.2l-0.2-22.7l-0.3-10l-1.5,0.3L9,44.1l0.2,1.7V47.1"/>
			<path fill="#666675" d="M17.3,33.6l-0.5-0.5L18,65.6L17.3,33.6"/>
			<path fill="#646473" d="M16.8,33.1l0.5,0.5v-2.7l-0.1-1v-2.1h-0.7L16.8,33.1 M6.8,6.3V5.9H6.6L6.8,6.3 M6.5-10.9l1-0.5l0.2-0.3
				l-0.5-4l-0.5,0.8v0.5l-0.2,1l0.2,0.3l-0.2,0.9v0.1v0.4H6.3L6.5-10.9 M7-16.4h0.3L7-30.4l-0.2-3.2v-0.6l-1-11.5H5.6v0.6l0.1,3.2
				v2.2v0.3L6-38.2v6.3l0.2,1.2v6.1l0.1,1.4v5.8v0.5L7-16.4 M5.5-46.7h0.3l-0.1-2.9L5.5-46.7"/>
			<path fill="#636372" d="M16.8,33.1l-0.3-5.3v-0.2l-0.3-0.5l-0.9-0.3l0.4,5.8L16.8,33.1 M11.1,19.8l0.5-0.7L11.1-5.6v-1.3L11-8.1
				l-0.2-4.1L9-12.1l0.3,8.5l0.2,1.4v1.1L11.1,19.8 M15.6,16.3l0.3-0.4h0.2l0.1-0.1l0.2-0.2L15.8-9.7v-0.4l-0.1-0.8l-0.5-0.7
				l-0.9-0.1L15,3.6l0.2,3v0.2v9.5H15.6"/>
			<path fill="#676777" d="M8.6,32.9l1.5-0.3L9.6,20.8l-0.2-2.9v-0.1l-1.3-15L7.8,9.1v0.3L8,12.9l0.2,9L8,23.3L8.6,32.9"/>
			<path fill="#626271" d="M10.1,32.6l1.8-0.2l-0.5-9l-0.2-0.3l-0.6-1.7l0.5-1.6L9.5-1.1v18.9v0.1l0.2,2.9L10.1,32.6 M7-15.9
				l0.2,0.2l0.1-0.7H7l0.2,0.3L7-15.9 M7.1-39.7v-0.7L7-42.6L6.5-53.1l-0.8,0.5v3l0.1,2.9v1l1,11.5L7.1-39.7"/>
			<path fill="#656575" d="M12,32.4h2l-0.3-7l-0.2-0.3l-0.3-0.2l-1.7-1.5L12,32.4 M13.1,17.6l-2-23.2l0.5,24.7L13.1,17.6"/>
			<path fill="#616170" d="M15.6,32.6l-0.4-5.8l-0.1-0.2l-1.5-1.2l0.3,7L15.6,32.6 M13.1,17.6l0.3-0.3h0.2l0.8-0.4l0.3-0.3L13.3,0.1
				v-1l-0.1-1.7l-0.4-9.6h-2L11-8.1l0.2,1.2v1.3L13.1,17.6 M8.1,2.8l1.3,15V-1.1v-1.1L9.3-3.6L9-12.1l-1.3,0.4l-0.2,0.3L8-0.1
				l0.2,2.7V2.8"/>
			<path fill="#6666E5" d="M39.1,29.9H40l-2.2-9.3l-0.5-1.2l0.2-0.8v-0.3l-0.2-0.2v0.5l-0.1,0.2l-3.4,4.8l2,3.3l-0.3,0.4l2.2,2.3
				L39.1,29.9"/>
			<path fill="#404077" d="M39.1,29.9l-1.5-0.3l-2.2-0.2l-1-0.1h-1h-0.8L39.1,29.9 M30.8,29.1h1h-0.3H30.8 M28.1,28.8l-1-0.2
				l-3.7-0.2L28.1,28.8"/>
			<path fill="#ADADFF" d="M37.6,29.6l-2.2-2.3l-8.3,1.3l1,0.2l3.3,0.3h0.3l1.7,0.2h1l1,0.1L37.6,29.6"/>
			<path fill="#7373BB" d="M32.6,29.3h0.8l-1.7-0.2L32.6,29.3 M30.8,29.1h0.7l-3.3-0.3L30.8,29.1"/>
			<path fill="#6666E4" d="M41.5,28.4l-3.3-9l-0.7-0.8l-0.2,0.8l0.5,1.2l2.2,9.3L41.5,28.4"/>
			<path fill="#ACACFF" d="M27.1,28.6l-1.7-1.7l-7.7,0.9l0.4,0.1l1.5,0.2h0.1h0.7l1.2,0.2h1.1l0.7,0.1L27.1,28.6 M-24.8-84.6
				l1.9-1.8l0.3-0.5l-1.2-2.5l-0.8-1.2l-3.2,3.5l1.2,1.4L-24.8-84.6 M23.8-112.9l0.4-0.5l-0.9-0.8l-8.5-5.9l-0.1,0.5l1.3,17.7
				L23.8-112.9"/>
			<path fill="#B2B2FF" d="M17.1,27.8h0.6l7.7-0.9l-9.7-0.1v-0.2h-0.6l0.1,0.2h0.5l0.4,0.3l0.3,0.5v0.2H17.1 M7.1,26.6h0.1v-0.3H6.6
				L7.1,26.6"/>
			<path fill="#B3B3FF" d="M35.5,27.3L26,26.9h-0.5l1.7,1.7L35.5,27.3 M6.6,26.3h0.6l0.2-0.9L6,25.3L6.6,26.3 M13.5,25.1l0.7-0.2h-1
				L13.5,25.1 M15,24.9l0.8,1.7l8.2-2.3l-8.7,0.5L15,24.9 M15.8-101.7l0.2-0.2l-1.3-17.7l-6,13v0.2L15.8-101.7"/>
			<path fill="#B7B7FF" d="M35.5,27.3l0.3-0.4l-2-3.3L26,26.9L35.5,27.3 M1.8-87.6l0.5-3.3l-1.5,2.7L1-87.9L1.8-87.6 M-24.9-90.9
				l0.3,0.3l5.5-2.6l-0.2-0.4l-12.8-9.1L-24.9-90.9"/>
			<path fill="#ABABFF" d="M16.1,27.1l-0.4-0.3h-0.5L16.1,27.1"/>
			<path fill="#B4B4FF" d="M25.5,26.9H26l7.8-3.3L24,24.3L25.5,26.9"/>
			<path fill="#B6B6FF" d="M25.5,26.9L24,24.3l-8.2,2.3L15,24.9h-0.8l-0.7,0.2l0.2,0.3l1.5,1.2h0.6v0.2L25.5,26.9"/>
			<path fill="#A4A4FF" d="M6,25.3l1.5,0.1v-0.5L6,25.3 M13.1,24.9h1H15l-0.8-2.3l-0.5,0.2l-2.2,0.6L13.1,24.9 M15.3,24.8l8.7-0.5
				l9.8-0.7l-1.5-4.5l-8,5L23,20.9L15.3,24.8 M-27.8-87.1l3.2-3.5l-0.3-0.3l-11.7-6.3l8.3,9.8L-27.8-87.1"/>
			<path fill="#8181F8" d="M5.6,24.3l1.6-0.2l0.4-0.7L5.6,24.3 M11.3,23.1l2.4-0.3l0.5-0.2l0.1-0.2L14,20.3l-1.5,0.6l-1.8,0.5
				L11.3,23.1"/>
			<path fill="#7575F2" d="M5.6,24.3l2-0.9L8,23.3v-0.9l-2,0.5l-0.5,0.2L5.6,24.3"/>
			<path fill="#5151BC" d="M5.5,23.1L6,22.9l1.8-1l-0.6-0.6l-1.5,0.8L5.5,23.1 M11.1,19.8l1.1-0.7h-0.6L11.1,19.8"/>
			<path fill="#696978" d="M8,23.3l0.2-1.4H7.8L8,22.4V23.3 M8.1,2.8V2.6L8-0.1L7.5-11.4l-1,0.5v0.7l0.2,0.5v1v2.3L7.8,9.1L8.1,2.8"
				/>
			<path fill="#5D5DD4" d="M6,22.9l2-0.5l-0.2-0.5L6,22.9 M12.5,20.9l1.5-0.6v-0.2v-1.7l-1.7,0.7l-1.1,0.7l-0.5,1.6L12.5,20.9
				 M35.6-21.1l5,4l-0.5-4.1L39-25.6l-3.5,4.2L35.6-21.1 M35-22.6l0.2-0.6l-3.5-8.5l-0.4,0.1l-0.6,2.4l-0.2,0.1l0.3,0.2l-0.3,3.5
				l4.8,3.8L35-22.6 M-17.4-38.7l6.5,46.5L-11-41.6l-0.2-1.6l-6.3,0.8L-17.4-38.7"/>
			<path fill="#7575F1" d="M14.3,22.4h0.5l7.5-4.8l-7.6,2.3L14,20.1v0.2L14.3,22.4"/>
			<path fill="#28286B" d="M5.6,22.1l1.5-0.8l0.1-0.2l-0.1-0.3L6,21.3L5.6,22.1"/>
			<path fill="#8080F8" d="M23,20.9l0.3-0.3l-0.5-3.2l-0.5,0.2l-7.5,4.8L23,20.9"/>
			<path fill="#5050BB" d="M14,20.1l0.7-0.2l7.8-5.3l-7.2,3l-0.8,0.3h-0.2L14,18.4V20.1"/>
			<path fill="#363687" d="M11.6,19.1h0.6l1.7-0.7l0.3-0.5l0.2-1l-0.8,0.4h-0.2l-0.3,0.3L11.6,19.1"/>
			<path fill="#8080F7" d="M32.3,19.1l0.4-0.2L32,14.3l-0.3,0.1l-8.4,6.2L32.3,19.1"/>
			<path fill="#6B6BEF" d="M-22.4,18.1l-0.4-4.8l-3,2v0.5v1.3v0.5l3,47.2L-22.4,18.1"/>
			<path fill="#6363E0" d="M-22.4,18.1l5,47l0.1-50.3l-0.1-3.5l-5.2,1.6l-0.2,0.4L-22.4,18.1 M37.1,17.3v0.3l3.6-5L39,9.1l-2-2.5
				l-2-0.7l-1.3,0.9l-0.4,0.3l3.7,9l-0.2,0.3L37.1,17.3"/>
			<path fill="#6464E2" d="M37.3,17.9l5.4,3.7L42,16.9L37.3,17.9 M37.1,17.3l-0.4-0.9l-4.6-6.3L32,14.3l5.2,3.3V17.3"/>
			<path fill="#28286A" d="M14.3,17.9h0.2l0.8-0.3l7.4-5l-1.5,0.7l-0.4,0.1l-2,1.2l-0.3,0.2l-0.3,0.1l-0.4,0.2l-0.3,0.2L17,15.4
				l-0.3,0.4h-0.2h-0.2l-0.1,0.1H16l-0.3,0.4h-0.5l-0.4,0.3l-0.3,0.3L14.3,17.9 M23.1,14.1l0.6-0.3l8-5.7L27,10.3l-0.3,0.1h-0.2
				l-0.2,0.2L26,10.8l-0.2,0.1l-1.3,0.7h-0.2L24,11.9l-0.3,0.4L23.1,14.1"/>
			<path fill="#5C5CD2" d="M22.3,17.6l0.5-0.2l0.4-0.3v-2.8l-0.7,0.3l-7.8,5.3L22.3,17.6"/>
			<path fill="#7474F0" d="M22.8,17.4l0.5,3.2l8.4-6.2l-8.5,2.7L22.8,17.4"/>
			<path fill="#5F5F6D" d="M14.8,16.6l0.4-0.3V6.8V6.6l-0.2-3l-0.7-15.3L14-12.1l-1.2-0.1l-0.1-1l-0.4-0.5l-1.6-1.5l0.1,3h2l0.4,9.6
				l0.1,1.7v1L14.8,16.6 M15.8-10.1l0.2-0.6l-0.3-0.2L15.8-10.1 M12.1-20.7l0.1-1.4L10-48.9l0.3,26.3l0.2,3.5L12.1-20.7"/>
			<path fill="#6969C4" d="M16.3,15.8h0.2h0.2l0.3-0.4l-0.5,0.2L16.3,15.8 M24,11.9l0.3-0.3L24,11.8V11.9 M26.5,10.4h0.2l0.3-0.1
				L26.5,10.4"/>
			<path fill="#363686" d="M22.5,14.6l0.7-0.3v-0.2l0.5-1.8l-0.9,0.3h-0.1l-7.4,5L22.5,14.6"/>
			<path fill="#5C5CD1" d="M31.6,14.4l0.3-0.1l0.2-4.2l-0.7,0.5l-8.3,6.5L31.6,14.4"/>
			<path fill="#5050B9" d="M23.1,14.3v2.8l8.3-6.5l-7.7,3.2l-0.6,0.3V14.3"/>
			<path fill="#6666E6" d="M-3.4,13.8l-0.2-3.2l-7.2-0.2l-0.1,0.2l0.3,1.8l7.7,53.7L-3.4,13.8"/>
			<path fill="#656574" d="M7.1,13.9L7,12.4v1L7.1,13.9 M6.8,6.3V5.1v0.8V6.3"/>
			<path fill="#6464E0" d="M-22.8,13.3l0.2-0.4l-0.2-5.6l-3-44.9v15.9v24v13L-22.8,13.3"/>
			<path fill="#414189" d="M22.6,12.6h0.1l0.9-0.3l0.3-0.4l-2.8,1.4L22.6,12.6"/>
			<path fill="#6161DC" d="M7,12.4v-1.5L6.8,9.8V7.6L6.6,5.9l-2-20v-0.1l-0.2-0.5v-0.7L2-36.6L2.5,8.1l0.2,3.5L7,13.4V12.4
				 M-17.4,11.3l-0.2-3.5l-4.8-43.2l-0.4,42.7l0.2,5.6L-17.4,11.3"/>
			<path fill="#5D5DD3" d="M-17.4,11.3l6.5-0.7l0.1-0.2l-0.1-2.6l-6.5-46.5l-0.2,46.5L-17.4,11.3 M35.5-21.4l3.5-4.2l-1.8-3.6
				l-1.5,7.8H35.5 M35.3-21.6l0.2-0.3L35-22.6L35.3-21.6 M35.1-23.2l0.3-0.2l-2.2-9.2l-1.6,0.9L35.1-23.2 M2-36.6l-0.3-5.3l-6-1.2
				l0.3,3.9L2.5,8.1L2-36.6"/>
			<path fill="#6060D8" d="M-3.5,10.6l6.2,1L2.5,8.1L-4-39.2l0.3,47L-3.5,10.6"/>
			<path fill="#363685" d="M31.5,10.6l0.7-0.5L33,7.3l-1.2,0.8l-8,5.7L31.5,10.6"/>
			<path fill="#6262DD" d="M-3.5,10.6l-0.2-2.8L-11-41.6l0.2,49.4l0.1,2.6L-3.5,10.6 M-22.4-35.4l-0.4-5l-3,2.8l3,44.9L-22.4-35.4"
				/>
			<path fill="#424289" d="M27,10.3l4.8-2.2L33,7.3l0.3-0.2l0.4-0.3L27,10.3"/>
			<path fill="#6060DA" d="M6.8,7.6V6.3L6.6,5.9h0.1V5.1v-6L6.6-2.4v-4v-2.3v-1l-0.2-0.5v-0.7l-0.2-0.8l-0.5-0.4l-0.6-1l-0.5-1l2,20
				L6.8,7.6 M5-16.2l1.3-1.2v-5.8l-0.1-1.4v-6.1L6-31.9v-6.3l-0.2-1.2v-0.3l-4.1-2.2L2-36.6l2.5,21.2L5-16.2"/>
			<path fill="#5F5FD7" d="M37.6-9.4h0.5l1.5-1.3l-3.2-7.9L36-19.9l-0.3-0.8l-0.2,0.3L32-16.2l2.2,3.5L34-12.6l2,2.2l0.2,0.3
				L37.6-9.4"/>
			<path fill="#454577" d="M37.6-9.4l-1.5-0.7h-1.4h-7.3L37.6-9.4"/>
			<path fill="#7C7CBB" d="M27.5-10.1h7.3l-8.5-0.5h-0.6l1.1,0.5H27.5 M18.8-10.6H23l-7.3-0.3l0.3,0.2l0.7,0.1H18.8"/>
			<path fill="#BABAFF" d="M34.8-10.1h1.4L36-10.4l-2-2.2l-7.7,2L34.8-10.1 M5.8-12.1l0.7-0.1l0.2-0.9H5.1L5.8-12.1 M-39.9-115.6
				l15.8,8l-4.8-13.8l-0.2-0.3l-9.8,5l-1.2,0.5l-0.2,0.3L-39.9-115.6"/>
			<path fill="#444477" d="M26.8-10.1l-1.1-0.5H23h-4.2L26.8-10.1"/>
			<path fill="#B9B9FF" d="M25.6-10.6l-1.4-1.8l-0.5,0.2h-0.6l-7.5,1.3l7.3,0.3H25.6 M-22.5-86.9l1-0.3l-2.2-2.2L-22.5-86.9"/>
			<path fill="#BFBFFF" d="M26.3-10.6l7.7-2l-9.3,0.2h-0.4l1.4,1.8H26.3 M5.8-12.1h0.7v-0.1L5.8-12.1 M14-12.1l0.8-0.1l-1-1.9
				l-0.6,0.2l-0.5,0.2h-0.4l0.4,0.5L14-12.1"/>
			<path fill="#BEBEFF" d="M15.6-10.9l7.5-1.3h-8.4l0.4,0.6L15.6-10.9 M23.8-12.2l0.5-0.2h-0.1L23.8-12.2 M-21.5-87.2l3.8-1.9
				l-0.8-3.1l-0.5-1l-5.5,2.6l0.8,1.2L-21.5-87.2 M8.5-105.2l0.2-1.2l-10-2.7v0.9l4.1,15.3L8.5-105.2"/>
			<path fill="#BDBDFF" d="M6.3-11.7h0.2v-0.4H5.8L6.3-11.7"/>
			<path fill="#B8B8FF" d="M15.1-11.6l-0.4-0.6L14-12.1l0.3,0.4L15.1-11.6"/>
			<path fill="#61616F" d="M7.6-11.7L9-12.1L8.6-22.2l-0.2-1v-1.9L7.1-39.7l-0.4,5.5v0.6L7-30.4l0.3,14l-0.1,0.7L7.6-11.7"/>
			<path fill="#5C5C6A" d="M10.8-12.2l-0.1-3l-0.2-0.2l-0.8-1.3v-0.5l0.6-1.4l0.2-0.5l-0.2-3.5L10-48.9l-0.3-5.2L8-53.7l0.3,8.5
				l0.2,1.8v0.7v17.6v1.9l0.2,1L9-12.1L10.8-12.2 M14.1-22.1l0.8-0.3v-3.2l-0.7-27.3l-1.1-0.8l0.5,12.6l0.1,0.7v2.3v13.9v1.1
				L14.1-22.1"/>
			<path fill="#C0C0FF" d="M23.1-12.2h0.6l0.4-0.2l-1.5-2.7l-7.9,2.9H23.1 M-3.9-89.4l4.6,1.2l1.5-2.7l0.5-1.7L-4-94.4v2L-3.9-89.4
				 M8.6-106.4v-0.2l-7.5-17.5l-2.7,14.7l0.2,0.3L8.6-106.4"/>
			<path fill="#5B5B68" d="M12.8-12.2l1.2,0.1l-1.3-1.1L12.8-12.2 M12.1-20.7l1.1-0.7l0.5-0.3v-1.4v-1.1l-1.6-18.2v-1.7l-0.2-1
				l-0.3-9h-2l0.3,5.2l2.3,26.8L12.1-20.7"/>
			<path fill="#BCBCFF" d="M24.3-12.4h0.4l7.3-3.8l-8.8,1l-0.5,0.1l1.5,2.7H24.3 M-32-102.7l12.8,9.1l-4.5-13.3l-0.3-0.5l-8.3,4.2
				L-32-102.7 M14.6-119.6l0.1-0.5l-0.5-0.3l-13.1-3.7l7.5,17.5L14.6-119.6"/>
			<path fill="#C1C1FF" d="M24.6-12.4l9.3-0.2l0.2-0.1L32-16.2L24.6-12.4"/>
			<path fill="#A9A9FF" d="M5.1-13.1h1.5l-0.2-0.3L5.1-13.1 M12.3-13.7h0.4l0.5-0.2l0.6-0.2l-0.6-2.1l-0.9,0.3l-1.6,0.7L12.3-13.7
				 M14.1-14.1l8.5-1l0.5-0.1l8.8-1l-1-4.5l-0.5,0.1l-7.3,5.4L22-18.6l-0.5,0.4L14.1-14.1"/>
			<path fill="#5E5ED6" d="M40.5-13.2l-4.8-7.5v-0.4L31-20.7l1,4.5l3.5-4.2l0.2-0.3l0.3,0.8l0.5,1.3l3.2,7.9L40.5-13.2"/>
			<path fill="#BBBBFF" d="M13.8-14.1l1,1.9l7.9-2.9l-8.5,1H13.8"/>
			<path fill="#7272EA" d="M4.6-14.1l0.6-0.1l1.4-0.7l0.5-0.8L7-15.9l-1.5,0.3l-1,0.2v0.7l0.2,0.5V-14.1 M9.6-16.7l2.3-1.2l-2.3,0.7
				V-16.7"/>
			<path fill="#8080F4" d="M5.3-14.2l1.4-0.2v-0.5L5.3-14.2 M12.3-15.9l0.9-0.3l-0.4-2L12-17.9l-2.3,1.2l0.8,1.3L12.3-15.9"/>
			<path fill="#4A4AAE" d="M4.5-15.4l1-0.2L7-16.4l-0.7-0.5L5-16.2L4.5-15.4 M10.3-18.6l1-0.8l-0.8,0.3L10.3-18.6 M27.1-115.9
				l1.1,2.7l-0.3-3.4l-1-2.5l-1.3-2.1L27.1-115.9"/>
			<path fill="#5757C7" d="M7-15.9l0.2-0.2L7-16.4l-1.5,0.8L7-15.9 M9.6-17.2l2.3-0.7l0.8-0.3l0.2-0.4l0.2-1.6l-1.9,0.8l-1,0.8
				L9.6-17.2"/>
			<path fill="#7171EA" d="M13.1-16.2l0.5-0.2l7.5-5.2l-7.7,2.9L13-18.6l-0.2,0.4L13.1-16.2"/>
			<path fill="#20205A" d="M5-16.2l1.3-0.7v-0.5L5-16.2"/>
			<path fill="#5E5ED5" d="M40.6-17.1l-5-4l-0.2-0.3l-0.2-0.2l-4.8-3.8l0.5,4.7l4.7-0.4v0.4l4.8,7.5L40.6-17.1 M-4-39.2l-0.3-3.9
				l-6.9-0.1l0.2,1.6l7.3,49.4L-4-39.2"/>
			<path fill="#7F7FF4" d="M21.5-18.2l0.5-0.4v-0.1l-0.3-3.2l-0.5,0.3l-7.5,5.2L21.5-18.2"/>
			<path fill="#7E7EF4" d="M22-18.6l8.5-2l0.5-0.1l-0.5-4.7L30-25.1l-8,6.4V-18.6"/>
			<path fill="#2E2E77" d="M10.5-19.1l0.8-0.3l1.9-0.8l0.1-0.4v-0.8l-1.1,0.7L10.5-19.1"/>
			<path fill="#1F1F59" d="M14.6-21.2l5.5-3.9l-4.9,2.4L15-22.4l-0.8,0.3l-0.4,0.4l-0.5,0.3v0.8L14.6-21.2 M22-25.1h0.2l0.6-0.3
				l7.4-5.3l-7.9,4.3L22-25.1"/>
			<path fill="#5C5CD3" d="M35.5-21.4h0.2l1.5-7.8l-1.9-2.4l-2-1l2.2,9.2l-0.3,0.2L35-22.6l0.5,0.7l-0.2,0.3L35.5-21.4"/>
			<path fill="#5656C6" d="M21.1-21.6l0.5-0.3v-0.2v-2.5l-0.9,0.5l-7.3,5.4L21.1-21.6 M-5-89.6l-5-0.3h-1l6.5,43.7L-5-89.6"/>
			<path fill="#7070E9" d="M21.6-21.9l0.3,3.2l8-6.4l-8,3h-0.3V-21.9"/>
			<path fill="#595966" d="M14.1-22.1l-0.4-1v1.4L14.1-22.1 M13.8-38.1v-2.3l-0.1-0.7l-0.5-12.6l-1.5-0.4l0.3,9l0.2,1v1.7l1.6,18.2
				V-38.1"/>
			<path fill="#5D5D6B" d="M15-22.4l0.3-0.3L15-25.6V-22.4 M5.6-45.7l-0.2-1v1H5.6"/>
			<path fill="#2E2E76" d="M20.8-24.1l0.9-0.5l0.3-0.5l0.3-1.3l-2.1,1.3l-5.5,3.9L20.8-24.1"/>
			<path fill="#5555C5" d="M30-25.1l0.5-0.3l0.3-3.5l-0.3-0.2L30-28.7l-8,6.6L30-25.1 M-17.4-88.9l6,42.8l-0.4-43.8l-4.6,0.7
				L-17.4-88.9"/>
			<path fill="#585866" d="M15-25.6l0.3,2.9L15-48.4l-0.2-4l-0.5-0.5L15-25.6"/>
			<path fill="#2E2E75" d="M22.8-25.4l7.2-3.3l0.5-0.4l0.2-0.1l0.6-2.4l-1.1,0.9L22.8-25.4"/>
			<path fill="#5B5BCF" d="M-22.4-35.4l4.8,43.2l0.2-46.5l-0.2-3.7l-5.2,2L-22.4-35.4"/>
			<path fill="#5B5B69" d="M7.1-39.7l1.3,14.6v-17.6v-0.7l-0.2-1.8L8-53.7H7.5L7-53.6l-0.5,0.5L7-42.6l0.2,2.2V-39.7"/>
			<path fill="#5B5BD0" d="M-22.8-40.4l-0.1-8.2l-2.4-32.8l-0.3,0.3v0.9v0.5v2.6l-0.2,36v3.5L-22.8-40.4"/>
			<path fill="#5858C9" d="M-4.4-43.1l6,1.2l-0.2-3.3l-6-44.2L-5-89.6l0.5,43.4L-4.4-43.1 M-25.5-79.7v-0.5l-0.3,0.3L-25.5-79.7"/>
			<path fill="#5555C4" d="M-11.3-43.2l-0.1-2.9l-6-42.8l-0.4-0.2l-0.1,42.2l0.3,4.5L-11.3-43.2 M1-86.7v-1.2l-0.2-0.3l-4.6-1.2
				h-0.7l6,44.2L1-86.7"/>
			<path fill="#5959CA" d="M5.6-45.1v-0.6H5.5L5.6-45.1 M5.6-49.6v-3L5.3-77.1l-0.3-8v-0.5l-3.2-2L1-87.9v1.2l4.5,40L5.6-49.6"/>
			<path fill="#5E5E6D" d="M5.6-45.7h0.1v-1H5.5L5.6-45.7"/>
			<path fill="#5555C3" d="M7-53.6l0.5-0.1L6.8-79.9v-0.2L7-82.6l-2-2.5l0.3,8L7-53.6"/>
			<path fill="#313177" d="M6.8-79.9H7l-0.2-0.2V-79.9 M8.1-80.9l5-4.5l0.6-0.7v-0.1l-4,3.5l-0.6,0.5L8.1-80.9"/>
			<path fill="#5555BB" d="M7-79.9l1.2-1l-1.4,0.8L7-79.9 M9.1-82.2l0.6-0.5l-0.6,0.3V-82.2"/>
			<path fill="#7D7DFB" d="M-25.9-79.9l0.3-0.3v-0.9l-1.5-0.8l0.8,1.5L-25.9-79.9"/>
			<path fill="#9696FF" d="M-25.5-81.1l0.3-0.3l-0.1-2.7l-1.2-1.6l-1.2-1.4l-0.5,3.9l0.5,0.5L-25.5-81.1"/>
			<path fill="#7474F6" d="M-26.3-80.4l-0.8-1.5l-0.7-0.8l-0.5-0.5l-0.3-0.4l-3.5-1.6L-26.3-80.4"/>
			<path fill="#8A8AFF" d="M9.1-82.4l0.6-0.3l8-11.5l-7.6,7.8l-0.4,0.3l-0.1,0.9L9.1-82.4"/>
			<path fill="#7C7CFA" d="M-28.5-83.6l-7.8-7l2.3,3.5l1.5,1.5l0.5,0.2v0.2L-28.5-83.6"/>
			<path fill="#A3A3FF" d="M5-85.1l1.5-2.3L5-85.6V-85.1"/>
			<path fill="#5454BB" d="M13.8-86.1l1-0.8l1-1.2l-2,1.9V-86.1"/>
			<path fill="#5353C0" d="M-22.5-86.9l4.7,40l0.1-42.2l-3.8,1.9L-22.5-86.9"/>
			<path fill="#B0B0FF" d="M6.5-87.4l1.2-2.2l-0.2-0.1l-4.7-2.9l-0.5,1.7l-0.5,3.3l3.2,2L6.5-87.4"/>
			<path fill="#303077" d="M14.8-86.9l8.2-7.7l-4.5,4L18-90.1l-2.2,2L14.8-86.9"/>
			<path fill="#C6C6FF" d="M-17.8-89.1l0.4,0.2l1-0.3l-2.2-3L-17.8-89.1 M-23.8-106.9l11.9,12l-1.2-14.7l0.5,0.5L-4-94.7l2.7-13.5
				v-0.9l-11.7-0.5h-0.2l-10.8,2.2L-23.8-106.9"/>
			<path fill="#C5C5FF" d="M-4.5-89.4h0.7l-0.2-3l-1,2.8L-4.5-89.4 M-1.4-109.1l-0.2-0.3l-13-15.3l1.2,14.8l0.1,0.3h0.2L-1.4-109.1"
				/>
			<path fill="#B5B5FF" d="M7.5-89.7l0.2-0.2l0.8-15.3L2.8-92.9v0.3L7.5-89.7 M-32.4-103.2l8.3-4.2v-0.2l-15.8-8l7.3,12.2
				L-32.4-103.2"/>
			<path fill="#C8C8FF" d="M-11.8-89.9l0.4-0.2l-0.2-4l-0.2-0.5l7.7,0.2v-0.3l-8.5-14.4l-0.5-0.5l1.2,14.7l0.1,0.3l-7.3,1.4l0.5,1
				l2.2,3L-11.8-89.9"/>
			<path fill="#CACAFF" d="M-11-89.9h1l-1.5-4.2l0.2,4L-11-89.9"/>
			<path fill="#C9C9FF" d="M-5-89.6l1-2.8v-2l-7.7-0.2l0.2,0.5l1.5,4.2L-5-89.6"/>
			<path fill="#7373F4" d="M-36.4-90.6l-0.7-0.8l-0.5-0.5l-3.2-0.7l6.7,5.5L-36.4-90.6"/>
			<path fill="#7A7AF9" d="M-37.5-91.9l-8-7.3l4.8,6.6L-37.5-91.9"/>
			<path fill="#C3C3FF" d="M2.8-92.6v-0.3l-4.1-15.3L-4-94.7v0.3L2.8-92.6 M-28.9-121.4l15.5,11.5l-1.2-14.8l-13,2.6l-1.5,0.4
				L-28.9-121.4"/>
			<path fill="#C4C4FF" d="M-19-93.2l7.3-1.4l-0.1-0.3l-11.9-12l4.5,13.3L-19-93.2 M1.1-124.1v-0.1l-14.5-0.5h-1.2l13,15.3
				L1.1-124.1"/>
			<path fill="#8888FF" d="M18.6-95.2l-0.5,4.5l9-13.7L19-96.1L18.6-95.2"/>
			<path fill="#AAAAFF" d="M-36.5-97.2l11.7,6.3l-7.2-11.8l-0.3-0.5l-4.7,5.5v0.1v0.2L-36.5-97.2"/>
			<path fill="#8B8BFF" d="M-37-97.4v-0.2v-0.1l-9-2.2l0.5,0.7l8,7.3L-37-97.4"/>
			<path fill="#9292FF" d="M-37-97.7l-8.8-10.4h-0.4l0.2,8.2L-37-97.7"/>
			<path fill="#AEAEFF" d="M15.3-100.2l0.5-1.5l-7.1-4.7l-0.2,1.2L7.6-89.9L15.3-100.2"/>
			<path fill="#9F9FFF" d="M15.8-101.7l3.2,5.6l4.8-16.8l-7.8,11L15.8-101.7"/>
			<path fill="#A2A2FF" d="M-32.4-103.2l-0.2-0.2l-13.3-4.7l8.8,10.4L-32.4-103.2"/>
			<path fill="#9797FF" d="M27.1-104.4l0.6-0.8l-0.3-1.5l-3.3-6.7l-0.4,0.5L19-96.1L27.1-104.4"/>
			<path fill="#DBDBFF" d="M27.8-105.2l-1.3,6.5l2-8.4l-1,0.4L27.8-105.2"/>
			<path fill="#DCDCFF" d="M27.5-106.7l1-0.4l-0.2-0.1l-1-2.5l-2.6-4.9l-1.4,0.4l0.9,0.8L27.5-106.7 M-45.5-109.4l0.7-0.5l-0.7,0.3
				V-109.4 M-40-116.4v0.2l1.2-0.5l-0.7-0.4L-40-116.4"/>
			<path fill="#C2C2FF" d="M-24-107.4l10.8-2.2l-0.1-0.3l-15.5-11.5l4.8,13.8V-107.4"/>
			<path fill="#4B4BAF" d="M27.3-109.7l1,2.5l0.2-2.9l-1.2-2.5l-1.5-2.5L27.3-109.7"/>
			<path fill="#4F4FB7" d="M-45.5-109.6l0.7-0.3l0.1-0.3l0.5-0.7l0.5-0.5l0.2-0.3l0.3-0.4l0.2-0.3l0.5-0.5l0.2-0.3l0.3-0.4l0.2-0.3
				l0.5-0.5l0.1-0.3l0.4-0.4l0.1-0.3l0.4-0.3l0.1-0.2l0.2-0.3v-0.2l-4.7,3.2l-0.3,0.3h-0.3L-45.5-109.6 M-44.8-116.4l4.5-3l0.9-0.8
				v-0.2l-0.2-2.8l-0.7,0.6L-44.8-116.4"/>
			<path fill="#4E4EB6" d="M-45.4-112.9h0.3l0.3-0.3l4.5-6.2l-4.5,3l-0.3,0.3h-0.2L-45.4-112.9 M24.5-114.9l0.3-2l-0.1-0.5l-0.2-0.7
				l-0.7-0.6l-7.5-4.9l7.5,8L24.5-114.9 M-40.3-125.7l0.7-0.7l0.2-0.3l-0.2-2.7l-5.3,7L-40.3-125.7"/>
			<path fill="#DDDDFF" d="M23.3-114.2l1.4-0.4l-0.2-0.3l-0.7-0.7l-8.6-5.8l-0.9,1l0.5,0.3L23.3-114.2 M-38.9-116.7l9.8-5l1.5-0.4
				l-0.8-0.8l-0.4,0.2l-10.8,5.6L-38.9-116.7"/>
			<path fill="#4D4DB4" d="M24.6-114.6l2.6,4.9l-1.5-5.4l1.5,2.5l-1.6-5.8l-1-1.7l-0.2,2l0.2,0.7l0.1,0.5l-0.3,2L24.6-114.6
				 M-39.4-120.2l-0.2,3.1l10.8-5.6l-10.1,2.3h-0.5V-120.2 M23.3-122.2l1,0.8l0.4-1.7l-0.2-0.6l-0.2-0.2l-0.1-0.7l-0.7-0.6l-7.2-4.7
				L23.3-122.2"/>
			<path fill="#4E4EB5" d="M-45.3-116.1h0.2l0.3-0.3l4.5-6.2l-5.1,3.7L-45.3-116.1 M24.5-118.1l0.2-2v-0.3l-0.2-0.2l-0.2-0.8l-1-0.8
				l-7-4.5l7.5,8L24.5-118.1"/>
			<path fill="#4F4FB8" d="M-40-116.4l0.5-0.7l0.2-3.1l-0.9,0.8l-4.5,6.2L-40-116.4"/>
			<path fill="#4C4CB3" d="M25.6-118.4l1.5,2.5l-1.5-5.3l-1-1.9l-0.4,1.7l0.2,0.8l0.2,0.2v0.3L25.6-118.4 M-39.4-120.4h0.5l10-5.5
				l-10.5,2.3l-0.2,0.4L-39.4-120.4 M15.1-121.4l8.6,5.8l-7.5-8l-1-0.6L15.1-121.4"/>
			<path fill="#4E4EB7" d="M-45.4-118.9l5.1-3.7l0.7-0.6l0.2-0.4l-0.2-2.8l-0.7,0.7l-4.8,6.3l-0.3,0.3V-118.9"/>
			<path fill="#DEDEFF" d="M14.3-120.4l0.9-1l-0.5-0.2l-13.2-3.6l-15.2-0.5h-0.8l-13.8,2.8l0.8,0.8l13-2.6h1.2l14.5,0.5v0.1
				L14.3-120.4"/>
			<path fill="#4C4CB2" d="M25.6-121.2l1.3,2.1l-2.5-7.3l0.2-0.2l-0.4-0.1l0.2-0.4l-0.2-0.1v0.5l0.2,0.3l-0.3,1.8l0.1,0.7l0.2,0.2
				l0.2,0.6L25.6-121.2 M16.3-123.6l7.5,4.9l-7.5-8l-1.1-1.2v3.3l0.1,0.2v0.2L16.3-123.6 M-39.5-126.4l0.2,2.8l10.5-5.6l-9.9,2.3
				l-0.6,0.2L-39.5-126.4"/>
			<path fill="#4D4DB5" d="M-44.9-122.4l-0.2,3l4.8-6.3L-44.9-122.4"/>
			<path fill="#4949AD" d="M-28.8-122.7l0.4-0.2l-0.2-3.2l-0.3,0.2l-10,5.5L-28.8-122.7"/>
			<path fill="#4949AB" d="M15.1-124.6v-3.3l-0.7-0.2l-12.2-3.5l12.5,6.9L15.1-124.6 M-38.8-126.9l9.9-2.3l0.3-0.2l0.2-3.3l-0.5,0.3
				L-38.8-126.9"/>
			<path fill="#4D4DB3" d="M23.5-125.2l0.7,0.6l0.3-1.8l-0.2-0.3v-0.5l-8.8-6.7L23.5-125.2"/>
			<path fill="#4747A8" d="M1.5-125.2l13.2,3.6l-12.2-6.6l-0.7-0.4L1.5-125.2 M-14.5-125.7h0.8l-0.1-3.4h-0.5l-14,2.9l-0.2,0.1
				L-14.5-125.7"/>
			<path fill="#4747A7" d="M-14.5-125.7l-14-0.4l0.2,3.2L-14.5-125.7 M1.5-125.2l-14.7-3.9h-0.6l-0.4-3.3l-13.6,3l13.5,0.3h0.5
				l0.1,3.4L1.5-125.2 M2.5-128.2l12.3,3.5l-12.5-6.9l-0.6-0.3l0.1,3.3L2.5-128.2"/>
			<path fill="#4C4CB1" d="M16.3-126.7l7,4.5l-7-7.7l-1.1-1.2v3.2L16.3-126.7 M-39.4-126.7l0.6-0.2l9.9-5.5l-10,2.3l-0.7,0.7
				L-39.4-126.7"/>
			<path fill="#4848AA" d="M15.1-127.9v-3.2l-0.9-0.3l-11.8-3.3l12,6.6L15.1-127.9 M-38.9-130.1l10-2.3l0.5-0.3l-0.2-3L-38.9-130.1"
				/>
			<path fill="#4646A5" d="M1.8-128.6H1.3l-14.5-0.5l14.7,3.9L1.8-128.6 M-28.4-132.7h0.5l13.8-3h0.2v-3.2l-14,3l-0.7,0.2
				L-28.4-132.7 M2.5-134.7l11.8,3.3l-12-6.7L2-138.2H1.6v3.1v0.2L2.5-134.7"/>
			<path fill="#4545A5" d="M1.8-128.6l-0.1-3.3H1l-14.3-0.5l14.6,3.8H1.8 M1.3-135.1l-14.5-3.8h-0.6v3.2l1,0.1L1.3-135.1"/>
			<path fill="#4646A6" d="M-14.4-129.1l-13.5-0.3l13.6-3h0.9L1-131.9l-13.8-3.7l-1-0.1H-14l-13.8,3h-0.5l-0.2,3.3l0.2,3.2
				L-14.4-129.1 M2.3-131.6l12.2,3.5l-12-6.6l-0.8-0.2v3L2.3-131.6"/>
			<path fill="#4646A7" d="M-13.9-129.1h0.6l14.5,0.5l-14.6-3.8h-0.9L-13.9-129.1"/>
			<path fill="#4B4BB0" d="M16.3-129.9l7.2,4.7l-8-8.7l-0.5-0.3l0.2,3.1L16.3-129.9"/>
			<path fill="#4848A9" d="M15.1-131.1l-0.2-3.1l-12.7-3.9l12,6.7L15.1-131.1"/>
			<path fill="#4545A4" d="M1.6-131.9v-3v-0.2H1.3l-14.1-0.5L1-131.9H1.6"/>
			<path fill="#4444A3" d="M1.6-135.1v-3.1l-14.9-0.7l14.5,3.8H1.6"/>
		</g>
	</symbol>
</defs>
<use xlink:href="#新符号_12"  width="92.5" height="277.8" x="-46.3" y="-138.9" transform="matrix(1 0 0 -1 46.25 138.9248)"/>
</svg>
