<svg xmlns="http://www.w3.org/2000/svg" viewBox="0 0 244 256">
<defs>
	<symbol  id="新符号" viewBox="-121.9 -127.8 243.9 255.7">
		<g>
			<path fill="#8F8FA4" d="M-42.6,127.8h2.8l30.5-0.2h1.7l11-0.1h1l9.5-0.2h0.6l7.5-0.2h0.7l7.2-0.1h0.5l5.8-0.2l6.2-0.2l5.6-0.1
				l9.9-0.4h0.2l37.8-2l-1.2-0.5l-0.8-1.1l5-0.4l3.7-0.8l-1.5-0.5l-10.3-0.7l-28,1.5L45.3,121l-56.5,1.3l-52-0.3h-1l0.3,0.6l-6,0.5
				l-19-0.8l-16,1.3l-0.6,0.4l2.6,1.5l6,1.1l33.4,1h0.1L-42.6,127.8 M-6.1,123.5l5.8-0.5l47.3-1l21.2,1.3l0.2,0.7l-15.2,0.6l0.5,1
				l-3.3,0.2l-16.5,0.5l-55.4,0.8h-37.1l-14.7-0.3c-2.9,0-4.4-0.3-4.5-0.8l0.3-1.7h0.5l6.9,0.2l18.1-1.4L-6.1,123.5 M-60.9,116.2
				l19.7-0.6l17.8,0.8l0.4,1.3l-3.5,0.2l-19.9,0.3l-14.3-0.5L-60.9,116.2 M58.9,114.7l26.2,1l6.8,0.7v0.8h-2l-53-0.6l-11.7-0.9
				l5.5-0.5L58.9,114.7 M-43.6,114l-20.5,0.8l-37.2,2.5l-3.8,0.5l0.1,1.8l-4.6,0.5l-2,0.5l-0.2,0.5c0.3,0.7,2.4,1,6.2,0.9h13.5l48-2
				l57.5-1.2l71,0.3l24,1.2l2.5,0.5l1.7-0.8l2.3,0.3l0.5,0.5c0.9,0.3,1.4-0.7,1.7-3.2l-4.3-0.8l-28.2-2.2L55.9,114l-31.9,0.1
				l-40.3,1.2L-43.6,114 M86.4,110v-0.2h-2.2L86.4,110 M57.4,109h-3.3h-1.5H57.4"/>
			<path fill="#4C4C58" d="M58.1,126.2l20-0.6l21.3-1.4l10-1l6.2-1.5c2.9-2.7,2.7-5.5-0.7-8.5l-5-1.3l-13.7-1.5l-6.7-0.3h-1h-0.8
				h-1.3l-2.2-0.2h-1.5l-1.8-0.2h-2l-4.7-0.1h-2l-4.5-0.2h-2l-4.7-0.2l-3.7-0.1h-4.9H16.3l-9.2,0.1l-26.3,0.4l-40.8,1.5l-22,1.3
				l-23.4,2.5l-1,0.3h-0.3l-0.7,0.2l-1.3,0.3h-0.2l-0.6,0.4l-0.5,0.1h-0.5c-4.4,2.7-4.7,5.7-0.7,9l11,1.5l36.7,1l-33.4-1l-6-1.1
				l-2.6-1.5l0.6-0.4l16-1.3l19,0.8l6-0.5l-0.3-0.6h1l52,0.3l56.5-1.3l17.5,0.6l28-1.5l10.3,0.7l1.5,0.5l-3.7,0.8l-5,0.4l0.8,1.1
				l1.2,0.5L58.1,126.2 M18.1,120.2l-42.3,0.9l-32-0.4l41.2-1.1l33-0.4h1.3h0.7h3.5h0.6l0.7-0.1h0.8l31.4,0.1l-31,0.9l-2.5,0.3
				L18.1,120.2 M-43.6,114l27.3,1.3l40.3-1.2l31.9-0.1l28.7,0.6l28.2,2.2l4.3,0.8c-0.2,2.4-0.8,3.5-1.7,3.2l-0.5-0.5l-2.3-0.3
				l-1.7,0.8l-2.5-0.5l-24-1.2l-71-0.3l-57.5,1.2l-48,2h-13.5c-3.8,0.1-5.8-0.2-6.2-0.9l0.2-0.5l2-0.5l4.6-0.5l-0.1-1.8l3.8-0.5
				l37.2-2.5L-43.6,114"/>
			<path fill="#C1C1D8" d="M46.9,122.7l5,0.5l-0.4,0.4l-14.5,0.3l-0.6,0.5l0.1,0.8l-2.5,0.2l-21.1,0.5l-70,0.3l-6.5-0.8l14.8-0.5
				c0.1-0.7,1.8-1,5-1l28.8,0.3l12.7,0.7l4.2-0.2V124l3.5-0.4l4.8-0.1L46.9,122.7 M-6.1,123.5l-45.9-0.4l-18.1,1.4l-6.9-0.2h-0.5
				l-0.3,1.7c0.1,0.5,1.6,0.8,4.5,0.8l14.7,0.3h37.1l55.4-0.8l16.5-0.5l3.3-0.2l-0.5-1l15.2-0.6l-0.2-0.7L47.1,122l-47.3,1
				L-6.1,123.5 M-48.9,117l8.4-0.5l4.1,0.3l-2.5,0.5L-48.9,117 M-60.9,116.2l0.2,1.5l14.3,0.5l19.9-0.3l3.5-0.2l-0.4-1.3l-17.8-0.8
				L-60.9,116.2 M62.1,115.3l11,0.7l-5.3,0.3l-15.5-0.5L62.1,115.3 M58.9,114.7l-28.2,0.5l-5.5,0.5l11.7,0.9l53,0.6h2v-0.8l-6.8-0.7
				L58.9,114.7"/>
			<path fill="#F0F0FE" d="M46.9,122.7l-36.7,0.9l-4.8,0.1L1.9,124v0.6l-4.2,0.2l-12.7-0.7l-28.8-0.3c-3.2,0-4.9,0.3-5,1l-14.8,0.5
				l6.5,0.8l70-0.3l21.1-0.5l2.5-0.2l-0.1-0.8l0.6-0.5l14.5-0.3l0.4-0.4L46.9,122.7 M-48.9,117l10,0.3l2.5-0.5l-4.1-0.3L-48.9,117
				 M62.1,115.3l-9.8,0.5l15.5,0.5l5.3-0.3L62.1,115.3"/>
			<path fill="#60606E" d="M18.1,120.2l5.4,0.2l2.5-0.3h-1h-0.9h-0.6h-3.5h-0.7L18.1,120.2"/>
			<path fill="#6C6C7C" d="M19.3,120v-0.9h-1.3l0.1,1L19.3,120 M24.9,120h1l-0.4-1h-0.8L24.9,120"/>
			<path fill="#B1B1CB" d="M19.9,120v-0.9h-0.7v0.9H19.9 M23.4,120h0.6v-0.9h-0.6V120"/>
			<path fill="#CECEEA" d="M19.9,120h3.5v-0.9h-3.5V120"/>
			<path fill="#9898AE" d="M24.1,120h0.9l-0.2-1l-0.7,0.1V120"/>
			<path fill="#6B6B7B" d="M-110.6,116.2h0.5l0.5-0.1l0.6-0.4h-1.6h-1.4h-0.8l-2,0.2L-110.6,116.2"/>
			<path fill="#828296" d="M-114.7,115.8l2-0.2l0.2-12.6l-1.9,0.1l-0.1,3.4v0.5v5.1L-114.7,115.8 M-106.7,115.2h0.3l1-0.3v-4.7
				l0.2-2.6l-0.2-4.4l-1.3-0.1V115.2 M-110.7,14.7l2.5-1.6l3.5-1.4l-0.5-37.5l-0.7,1.2l-0.1,0.3l-0.2,0.2l-0.2,0.2v0.1l-0.1,0.2
				l-0.2,0.2v0.1l-0.2,0.2l-0.1,0.2v0.1l-0.9,0.7l-2.5,1L-110.7,14.7 M-110.1-32.7l0.6-0.5l1.9-1.3l0.3-0.4l2.2-1.6l0.5-44.4
				l-2.4-0.5l-2.5,0.2L-110.1-32.7"/>
			<path fill="#9D9DB3" d="M-112.7,115.7h0.8l0.4-12.8l-1,0.2L-112.7,115.7 M-108.9,115.7h0.2l0.2-12.8h-2.4l0.4,12.8H-108.9
				 M-107.4,115.3l0.7-0.2V103l-0.7-0.2V115.3"/>
			<path fill="#C6C6DD" d="M-111.9,115.7h1.4l-0.4-12.8h-0.6L-111.9,115.7 M-107.4,115.3v-12.5h-1.1l-0.2,12.8L-107.4,115.3"/>
			<path d="M-79.6,110.8l6.6-0.3l-0.6,0.1h-1h-2h-0.5h-0.7h-0.7L-79.6,110.8 M-10.6,106.5l0.5,0.3l6.5-0.3l-3.9-0.2h-0.5h-0.6
				l-0.5,0.2H-10.6 M-11.7,56.5V54l-0.3,1.3v0.5v0.5L-11.7,56.5 M-74.4-2l1.5,1l59.4-7.4l0.3-1.1L-74.4-2 M-72.9-7.5l-2,0.5
				l-0.6,2.1l64.1-8l-0.1-0.6l-1-0.2v-0.7l-1-0.6l-34.4,4.3L-72.9-7.5 M-10.9-13l1.4-0.2v-0.3l-0.4-0.7l-1.3,0.8L-10.9-13
				 M-10.6-36.2h0.3h-0.2H-10.6 M-10.7-60.2h-0.3h-0.2H-10.7 M-11.9-83.7l0.5,0.3v-0.5l-0.3,0.2H-11.9"/>
			<path fill="#010101" d="M-79.6,110.8l1.1-0.2l-0.1-48.5l-0.9-0.3V61v-0.5v-0.2l0.4-1.3l0.3,0.6l0.8,0.2l0.4,0.3l0.6-0.1l0.7-1.2
				l3.3-1.5v-7.8v-8.4l-2.6-1.8l-0.4-0.3l-0.3-0.4l-0.7-0.3l-0.1-0.5l-0.2-0.3c-0.2-0.5,0.5-1.3,2.3-2.4l2-0.5V20.3l-1.6-1.2l-1-0.8
				l-0.5-0.5l-1-0.8l-0.2-0.5l2.5-2.4l1.8-0.3v-11V-1l-1.5-1l-0.5-0.5l-0.5-0.9v-0.8l-0.1-0.7l0.6-2.1l2-0.5v-13.9v-2.8l-1.6-1.3
				l-0.5-0.4l-0.2-0.3l-0.2-0.8v-2.5l0.2-0.4l2.3-0.8v-5.2v-4.8v-3.8v-1.9V-47l-1.5-1.2l-0.5-0.5l-0.3-0.8l-0.2-0.4l0.2-2.8l2.3-0.8
				v-15.9l-1.3-1.1l-0.3-0.4l-0.5-0.3l-0.2-0.3V-72l-0.2-0.4v-2.3l0.5-0.7l2-0.5l-0.1-40c-1.3-1.7-3.3-1.7-6-0.1l-0.4,68.1l0.2,3.5
				l-0.2,1.9v3.8v20l0.2,3.5l-0.2,19.7l-0.1,75.6v16.5v6.2v2.8v2.5v2V110.8 M-76.6,110.7h2v-34l0.1,3.2l0.5,0.3l0.4,30.5l0.6-0.1
				V108v-2.4v-2.8V96V64l-2.6-1.7l-0.4-0.3l-0.5-0.5l-0.5-0.4l-0.1-0.3l-0.5-0.5l-0.4,0.5L-76.6,110.7 M-10.6,106.5h1.5l-1.7-53.4
				l1.2,0.2l0.1,2.8l2,50.2l3.9,0.2v-0.7l-0.4-7.2l-0.1-5.5L-6.6-3.7L-6.9-14l-0.5-17.4l-0.5-18l-0.1-4v-1.3v-4l-0.2-1.5v-4.5
				L-8.6-73l-1.4-54.9l-6.3,0.4l1,41.5l1.8,1v1l-1,1v0.8l-0.3,0.3l-0.3,0.5v2l0.1,6.9l-0.1,9.6l1.5,0.5l0.6,0.9l1.9-0.9l0.3,2.2
				h-0.5h-0.5l-0.7-1.2l-1.1,1.5l-0.2,0.5l-0.2,0.5l-0.5,0.5l0.2,0.4l-0.3,0.5l-0.2,1.3l0.3,1.8l-0.1,0.9v4.3l-0.2,0.2l0.3,0.1v9.7
				l2,1.5h0.9l1.1-1l0.2,2.5h-0.3l-0.7-0.3l-0.3-1l-0.7,0.1l0.2,1l-1,0.5l-0.2,0.7l-0.5,0.7l-0.2,0.6l-0.3,1.5l0.3,1.4l0.4,16l1,0.6
				v0.7l1,0.2l0.1,0.6l-0.3,0.7l-0.2,0.5h-0.6v1.2l-0.7,0.3v0.7l-0.3,1.1l0.3,0.2l-0.3,4.8l0.5,1.9v8.6l1.1,1l0.4,1.4v0.6l-0.4,0.7
				l-0.1,0.7l-0.9,2.5l0.5,14.8l0.7,0.8v1.7v0.5l0.2,0.5v0.3v0.5l-0.7,2.5l0.2,9.2l0.3,7.8V53v1v2.5v0.6l0.3,1.4l-0.5,1l1,33.8
				l-0.1,5.3l0.5,2v5.2V106.5 M-78.4,38.5l-0.3-0.5v-0.5v-0.2l0.3-0.5l0.7,0.2v0.5V38v0.3L-78.4,38.5 M-10.6-12.3l-0.4-0.6l-0.3-0.4
				l1.3-0.8l0.4,0.7v0.3v0.7l-0.2,0.8L-10.6-12.3 M-11.9-83.7h-0.5l-0.5-1.2l1.2-1l0.3,0.7v1.3v0.5L-11.9-83.7"/>
			<path fill="#464646" d="M-78.4,110.7h0.7h0.7l-0.5-30.5l-0.7,0.2L-78.4,110.7"/>
			<path fill="#2C2C2C" d="M-77.1,110.7h0.5l-1.4-49.8l-0.3,0.5l-0.3,0.3v0.5l0.1,48.5l0.2-30.3l0.7-0.2L-77.1,110.7 M-74.6,110.7h1
				l-0.4-30.5l-0.5-0.3l-0.1-3.2V110.7"/>
			<path fill="#6464E1" d="M-60.1,111l40.8-1.5l-35.2-0.5l-18.5-1v2.5L-60.1,111 M52.6,109h1.5l-16.2-0.9L16.3,109H52.6
				 M-99.7,108.8l20.2,1.3v-2L-99.7,108.8"/>
			<path fill="#79798B" d="M96.3,110.3l1-0.2l-2.2-0.1h-3.5h-1h-1L96.3,110.3"/>
			<path fill="#808092" d="M86.4,110h1.3h0.8l-0.8-14l-1.7,0.1l-0.3,1.2l0.2,1v1.3l0.2,1.4v1l0.2,1.6v0.7l0.2,2v0.2V110 M91.6,110
				h3.5l-1.3-14.2h-3.5L91.6,110 M82.4,1.5l-3-30.2L78.8-28l2,29.1L82.4,1.5"/>
			<path fill="#A7A7BA" d="M89.6,110l-1-14h-0.8l0.8,14H89.6 M90.6,110h1l-1.3-14.2l-1,0.2L90.6,110"/>
			<path fill="#CACADC" d="M89.6,110h1l-1.3-14h-0.7L89.6,110"/>
			<path fill="#686877" d="M97.3,110.2l-0.2-4.1l-0.2-1l-0.7-9l-2.5-0.2l1.3,14.2L97.3,110.2 M86.4,110v-3.5l-0.2,0.5l0.2,2.8V110
				 M-114.7,106.2l0.2,0.4l0.1-3.4L-114.7,106.2 M-105.2,106l-0.2-2.9l0.2,4.4V106 M86.1,104.8l0.3,1.5l-0.2-2L86.1,104.8
				 M-113.2,15.8l2.5-1.2l0.3-35.8l-2,0.2l-0.5,0.8v7.5L-113.2,15.8 M-104.1,11.3l0.1-15.8V-5v-5.7l0.2-2.3l0.2-14l-0.4,0.1
				l-0.6,0.5l-0.5,0.4l-0.2,0.1l0.5,37.5L-104.1,11.3 M90.3,3.3L89.4-9.3l-0.5-5.5L88.8-18l-1.2-16.7v-0.2v-0.5l-0.3-3l-0.2-3.8v-3
				l-4-59.7l-1.2-1.1c-5.1-0.8-8.1,0-8.8,2.5l3.5,52.8l-0.3,1.2h-0.2l0.5,0.1l0.5,0.2l0.5,0.2l0.5,0.1l0.5,0.2l0.5,0.2l1.5,0.5
				l1.5,1.3l0.2,2.3L81.9-43l-1,1.1l-2.5,2h-0.8l-0.3,0.2l1.2,18.8l-0.3,0.2l0.5,1.8l1,19.9l1.2,0.1l-2-29.1l0.7-0.7l3,30.2
				L90.3,3.3 M-112.6-29.8h0.1l0.4-0.5l0.1-0.3l1.9-2l0.6-48.5l-2.3,1.2L-112.6-29.8 M-105.1-36.5l0.6-0.5l0.9-0.7l0.6-41.7l-0.5-1
				l-1.1-0.5L-105.1-36.5"/>
			<path fill="#6B6BEE" d="M-19.2,109.5l26.3-0.4l9.2-0.1l21.7-0.9l16.2,0.9h3.3l28.8-2l0.2-0.5l-42.4-0.9l-12.6,0.7l-16.4-0.8
				l-18.6,0.3v0.7l-6.5,0.3l-0.5-0.3v-0.7l-14.4-0.5l-30.1,0.8l-3.7-0.6l-14.2,0.1v2.4l18.5,1L-19.2,109.5 M-99.7,108.8l20.2-0.7
				v-2.5l-25.7,0.4v1.5v1L-99.7,108.8 M-114.6,107v-0.5l-0.2-0.4h-3.3L-114.6,107"/>
			<path fill-opacity="0" d="M-105.2,108.5v-1l-0.2,2.6L-105.2,108.5"/>
			<path fill="#7171FC" d="M86.4,106.5v-0.2l-0.3-1.5L54.6,104l5.8-1.5l-0.2-1l-3-1l-4.8-0.7l-24.5-1.3l-31.9,0.1l0.4,7.2l18.6-0.3
				l16.4,0.8l12.6-0.7L86.4,106.5 M-114.7,106.2l0.3-3l1.9-0.1l1-0.2h0.6h2.4h1.1l0.7,0.2l1.3,0.1l0.2,2.9l25.7-0.4v-2.8l-40.2-0.2
				l-2.2,0.9l0.7,1.6l3.2,1H-114.7 M-10.6,105.8v-5.2l-0.5-2l-37,2.2l-11.9,2h-13v2.8l14.2-0.1l3.7,0.6l30.1-0.8L-10.6,105.8
				 M97.1,106l5.2-0.9l-5.3-0.1L97.1,106"/>
			<path fill="#343434" d="M-9.1,106.5l0.5-0.2l0.1-10.7l0.5,10.7h0.5l-1.5-32l-0.8,0.2L-9.1,106.5"/>
			<path fill="#4A4A4A" d="M-8.6,106.3h0.6l-0.5-10.7L-8.6,106.3"/>
			<path fill="#7C7CFF" d="M102.3,105.2l13-2c4.1-1,6.3-1.9,6.7-2.6l-0.2-0.4v-0.8l-3.2-1.3l-3.7-1l-8.5-1.2l-20-1.7l-27.3-1
				l-35.3-0.3l-27.8,0.3l0.1,5.5l31.9-0.1l24.5,1.3l4.8,0.7l3,1l0.2,1l-5.8,1.5l31.5,0.8l0.2-0.5v-0.7l-0.2-1.6v-1l-0.2-1.4v-1.3
				l-0.2-1l0.3-1.2l1.7-0.1h0.8h0.7l1-0.2h3.5l2.5,0.2l0.7,9L102.3,105.2 M-79.6,102.8v-6.2l-3.9,0.4l-11.8,1l-17.8,2.6l-5,1l-1.7,1
				L-79.6,102.8 M-59.9,102.8l11.9-2l37-2.2l0.1-5.3l-16.5,0.5l-13.8,0.5l-19.5,1L-72.9,96v6.8H-59.9"/>
			<path fill="#6565E3" d="M-121.9,103.5l2.2-0.9l1.7-1l5-1l6-47.6l7.8-43.2l-4.8,1.5l-0.7,0.3l-3.5,1.4l-2.5,1.6l-2.5,1.2
				c-1.5,0.2-3.6,2.5-6.5,6.8L-121.9,103.5 M118.6,98l3.2,1.3L114.4,15l-6.3-5.5l-9.7-4l-8.2-2.2l-7.8-1.8l-1.7-0.4L79.6,1L60.1-1.8
				L48.3-2.7l-17-1.2L13.8-4L-6.6-3.7l2.5,96.8l27.8-0.3l12.2-48.5l11.6,1.2l14.5,0.1l9.7,1.5l12.2,0.5l7.7,2l8.8,0.7
				c3.8,2.1,7.7,3.2,11.8,3.2l2,1.6l0.8,0.9l0.3,2.8L118.6,98 M-21.2,45.2l9.2-0.3l-0.2-9.2l-10.3,1L-21.2,45.2 M-23.7,29.8l11.3-1
				L-12.9,14l-13.3,1.3L-23.7,29.8 M-29.1,8.8l16-1.7v-8.6l-0.5-1.9l-7.7,0.2l-14.2,1.3L-29.1,8.8"/>
			<path fill="#8181FC" d="M-95.2,98l11.8-1l3.9-16.9l0.1-75.6l-5.3,1.1l-3.7,0.9l-5.1,1.3l-2.2,0.7l-3.5,1.3l-7.8,43.2l-6,47.6
				L-95.2,98 M-27.4,93.8l16.5-0.5l-1-33.8L-32.7,61L-27.4,93.8 M23.8,92.8l35.3,0.3l27.3,1l20,1.7l8.5,1.2l3.7,1l-3.2-39.2
				l-0.3-2.8l-0.8-0.9l-2-1.6c-4.1,0-8.1-1.1-11.8-3.2l-8.8-0.7l-7.7-2l-12.2-0.5l-9.7-1.5l-14.5-0.1l-11.6-1.2L23.8,92.8
				 M-33.7,54.3l22-1.7l-0.3-7.8l-9.2,0.3l-1.3-8.5l-17.2,1.5l4.5,7.5L-33.7,54.3 M-72.9,41.2v8.4l11.7-1.7l4.2-8.2L-72.9,41.2
				 M-72.9,34.7l19.4-1.8l4.8-9.7l5.2,8.7l19.8-2l-2.5-14.5l-46.7,5V34.7 M-29.1,8.8l-6.4-10.7l-14.1,1.2l-23.4,3.5v11L-29.1,8.8"/>
			<path fill="#C9C9FC" d="M-83.4,97l3.9-0.4V80.2L-83.4,97 M-60.7,95.3l12.3-24.5c3.8,3.6,6.2,11.4,7.2,23.5l13.8-0.5L-32.7,61
				l-40.2,3v32L-60.7,95.3 M-72.9,57.3l39.2-3l-1.5-8.7l-4.5-7.5l-17.3,1.5l-4.2,8.2l-11.7,1.7V57.3 M-53.6,32.8l10-1l-5.2-8.7
				L-53.6,32.8"/>
			<path fill="#FFFFFF" d="M-60.7,95.3l19.5-1c-1-12.1-3.4-19.9-7.2-23.5L-60.7,95.3 M-79.4,61.8l0.9-0.2l0.3-0.3l-1.2-0.3V61.8
				 M-76.9,61.2l0.5,0.4l64.7-5l-0.3-0.2L-76.9,61.2 M-75.2-49.5l0.3,0.8l60.5-9.7l0.5-0.5L-75.2-49.5 M-75.1-71.2l60.3-10.7
				l0.3-0.3l-60.8,10.7L-75.1-71.2"/>
			<path fill="#1F1F1F" d="M-8.9,74.3l1.5,32l-2-50.2l-0.1-2.8l-1.2-0.2l1.7,53.4l-0.7-32L-8.9,74.3"/>
			<path fill="#070707" d="M-72.9,64l40.2-3l20.8-1.5l0.5-1l-0.3-1.4l-63.8,5.2L-72.9,64 M-79.4,60.5l1.9-0.2l65.5-5l0.3-1.3v-1
				v-0.4l-22,1.7l-39.2,3l-3.3,1.5l-0.7,1.2l-0.6,0.1l-0.4-0.3l-0.8-0.2l-0.3-0.6l-0.4,1.3V60.5"/>
			<path fill="#666666" d="M-75.6,62.3l63.8-5.2L-75.9,62L-75.6,62.3 M-77.9,60.8l0.4-0.5l0.5,0.5l65-5v-0.5l-65.5,5l-1.9,0.2V61
				L-77.9,60.8"/>
			<path fill="#B2B2B2" d="M-78.6,62.2v-0.5l-0.9,0.2L-78.6,62.2 M-75.9,62l64.2-4.9v-0.6l-64.7,5L-75.9,62 M-78.2,61.3l0.3-0.5
				l-1.5,0.2L-78.2,61.3 M-76.9,61.2l64.9-4.8v-0.5l-65,5L-76.9,61.2"/>
			<path fill="#0C0C0C" d="M-72.9,41.2l15.9-1.5l17.3-1.5l17.2-1.5l10.3-1l0.7-2.5l-64,6.2L-72.9,41.2 M-78.7,37.5h1V37l-0.7-0.2
				l-0.3,0.5V37.5 M-72.9,34.7l-2,0.5c-1.8,1.1-2.5,1.9-2.3,2.4l65.5-6.2v-1.7l-0.7-0.8l-11.3,1l-19.8,2l-10,1L-72.9,34.7"/>
			<path fill="#707070" d="M-75.6,39.3l64-6.2L-75.9,39L-75.6,39.3 M-78.7,38h1v-0.5h-1V38 M-77.1,37.8l65.3-6v-0.5l-65.5,6.2
				L-77.1,37.8"/>
			<path fill="#B6B6B6" d="M-76.2,38.7l0.3,0.4l64.4-5.9v-0.5L-76.2,38.7 M-78.4,38.5l0.7-0.2V38h-1L-78.4,38.5 M-76.9,38.3
				l65.2-6.5l-65.3,6L-76.9,38.3"/>
			<path fill="#FCFCFC" d="M-76.2,38.7l64.7-6v-0.3l-0.2-0.5l-65.2,6.5L-76.2,38.7"/>
			<path fill="#020202" d="M-72.9,20.3l46.7-5l13.3-1.3l0.9-2.5l-16,2.6l-46.5,5L-72.9,20.3 M-72.9,13.8l-1.8,0.3l-2.5,2.4l65.7-7
				l-0.4-1.4l-1.1-1l-16,1.7L-72.9,13.8"/>
			<path fill="#6B6B6B" d="M-74.6,19.2l46.5-5l16-2.6l0.1-0.7L-34.4,14l-41.1,4.3L-74.6,19.2 M-77.1,17l57.1-6.4l8.4-0.5V9.5
				l-65.7,7L-77.1,17"/>
			<path fill="#A2A2A2" d="M-75.6,18.3l41.1-4.3l22.5-3.2l0.4-0.7l-8.4,0.5L-77.1,17l55.8-5.5l-8.2,1.3l-46.6,5L-75.6,18.3"/>
			<path fill="#DBDBDB" d="M-76.1,17.8l46.6-5l8.2-1.3L-77.1,17L-76.1,17.8"/>
			<path fill="#5B5BD0" d="M-95.7,8.5l2.2-0.7l0.1-17.5L-95.1-8l-0.5,0.6v1.9V-4l-0.2,1.8v0.7v0.3v0.3h-0.2L-95.7,8.5 M65.8-25
				l-0.7-0.4l-0.8-0.1l-2.8-0.9L58.6-27l-7.7-1.4L60.1-10L65.8-25"/>
			<path fill="#6565E4" d="M-88.4,6.5l0.7-5v-16l-3.7,2.1l-2,2.7l-0.1,17.5L-88.4,6.5 M48.3-2.7l11.8,0.8L79.6,1l-1-19.9l-0.5-1.8
				l-5.3-2.5l-7-1.8l-5.7,15l-9.2-18.4L39.1-30l-6.1-0.5L33.6-13l10,0.5L48.3-2.7"/>
			<path fill="#6F6FF5" d="M-88.4,6.5l3.7-0.9l0.8-7l4.7-13.8l-0.2-3.5l-3.8,1.3l-4.5,2.9v16L-88.4,6.5 M13.8-4l17.5,0.1l17,1.2
				l-4.7-9.8l-10-0.5l-0.6-17.5l-9-0.9l-24.9-0.3l-6.5,0.3L-6.9-14l20.4-0.2L13.8-4 M-13.6-15l-0.4-16l-21.5,1.8l-12.5,2v16.5
				L-13.6-15"/>
			<path fill="#7979FE" d="M-84.7,5.7l5.3-1.1l0.2-19.7l-4.7,13.8L-84.7,5.7 M-72.9,2.8l23.4-3.5l14.1-1.2l14.2-1.3l7.7-0.2l0.3-4.8
				l-0.3-0.2L-72.9-1V2.8 M-6.6-3.7L13.8-4l-0.3-10.2L-6.9-14L-6.6-3.7 M-47.9-10.7v-16.5l-8,1.3l-9.1,2.4l-5.5,1.5l-1.5,0.3
				l-0.9,0.3v13.9L-47.9-10.7"/>
			<path fill="#9393A9" d="M-95.9-0.8h0.2v-0.3v-0.3L-99.2-3l-2.8-2.5l1.5-1.5c2.7,2.2,4.3,3.2,5,3v-1.5l-8.4-5.2V-5l3,2L-95.9-0.8
				 M89.4-9.3l1.7-0.8l0.3-0.3l4.5-3.7l0.2-0.2l0.7-0.5l0.2-0.1l1.5-1.4l1.8-3l0.2-0.1v-0.2l0.2-0.2V-20l0.2-0.2v-0.2l0.2-0.1
				l0.5-0.5v-0.2l0.2-0.3l0.2-0.4l0.2-0.5l0.2-0.1l0.3-0.4v-0.3l-0.7-7.3l0.3-0.5l-0.7-0.9l-5.3-5.6l-9-4.7l0.2,3.8l7.7,4l2,3.5
				l-2.7,0.4c-1.6-2.3-3.8-4-6.7-4.9v0.5v0.2l2,0.8l0.3,0.4l1.2,0.6l4.8,5.2l-0.3,3.5l0.3,1.5L93.1-17l-4.2,2.1L89.4-9.3
				 M-112.9-20.2l0.5-0.8l2-0.2l2.5-1l0.9-0.7l-0.5,0.2l0.1-0.5l1.5-2.3l0.7-0.4l0.2-0.1l0.5-0.4l0.6-0.5l0.4-0.1l0.1-0.2l0.4-0.3
				l0.5-0.4l0.3-0.1l0.3-0.4l0.5-0.3l0.4-0.2l0.3-0.3l2.2-1.5l13.3-6.2l5.8-1.8l-7.1,2l-6.4,2.7l-2.1-1.2l7-3.2l8.5-2.3l-0.7-1.7
				l0.8-0.1l0.2-1.9l-10.3,3l-13.4,6l-4.5,3.4l0.5,1.8l-4.5,3c0.2,0.5-0.4,1.5-1.8,3.2l1,1.3l-1.8,3.3l0.5,6l0.6,0.7V-20.2
				 M77.3-39.7l0.3-0.2l-11.3-3.6L47.6-47l-3-0.2l12.9,2.3l7.5,1.4L77.3-39.7 M-65.1-42.3l5-1l2.6-0.5l0.4-0.1h0.5l0.3-0.2h0.7
				l0.6-0.2l0.4-0.1h0.5l0.3-0.2l1-0.2l0.8-0.1l0.2-0.2l-12,2.2l-9.2,2.3L-65.1-42.3 M81.9-43l0.3-1.4l-12.5-4l-11-2l-9.3-2.3
				l-16.9-1.7L5.4-55l-13.5,0.3v1.3l33.1,0.2l24.7,1.5l19.3,4.5l11.8,5.3L81.9-43 M-51.6-45.2h0.8l0.3-0.2h0.5l0.4-0.1h0.5l0.5-0.2
				l1-0.2l0.5-0.1L-51.6-45.2 M-46.4-46l0.7-0.2l-1.2,0.2H-46.4 M-44.9-46.2l0.7-0.2l-1.2,0.2H-44.9 M-72.9-46.3v1.9l6.4-1.7
				c0-0.7,1.9-1.5,5.6-2.7l-8.6,1.4L-72.9-46.3 M-43.4-46.3l0.7-0.1l-1.2,0.1H-43.4 M-41.9-46.5l0.7-0.2l-1.3,0.2H-41.9 M-40.6-46.7
				l0.8-0.2l-1.3,0.2H-40.6 M-39.1-46.8l0.6-0.1l-1.1,0.1H-39.1 M-38.1-47h0.5l0.6-0.2L-38.1-47 M-36.1-47.2l0.6-0.2l-1.3,0.2H-36.1
				 M-34.6-47.3l0.6-0.1l-1.3,0.1H-34.6 M-33.2-47.5l0.8-0.2l-1.3,0.2H-33.2 M-31.7-47.7l0.7-0.2l-1.2,0.2H-31.7 M-30.2-47.8
				l0.7-0.1l-1.4,0.1H-30.2 M39.1-47.7l-8-0.8l1.2,0.1l0.3,0.2h1.4l2.8,0.3L39.1-47.7 M-28.7-48l0.7-0.2l-1.4,0.2H-28.7 M-26.4-48.3
				h1.4l0.6-0.1l1.5-0.2L-26.4-48.3 M29.3-48.5h1.3l-2.8-0.4l1,0.2L29.3-48.5 M-21.2-48.7l2-0.2l-3,0.2H-21.2 M-17.6-48.8l2.1-0.1
				l-3,0.1H-17.6 M26.1-48.8h1h0.5l-3-0.3l0.7,0.2L26.1-48.8 M21.3-49.2h2.2l-6.4-0.2L21.3-49.2 M-6.4-49.3l2-0.1l-3,0.1H-6.4
				 M13.9-49.3h2l-6.4-0.1L13.9-49.3 M-2.7-49.5l2.2-0.2l-3,0.2H-2.7 M2.4-49.7l4,0.2h2.1L2.4-49.7 M-25.4-53.3l10.9-0.1l0.1-0.9
				l-12.3,0.2h-0.3l-0.7,0.2h-0.7l-0.5,0.1l-13.6,2.2L-25.4-53.3"/>
			<path fill="#BCBCD6" d="M-95.7-1.5v-0.7l0.2-1.8c-0.7,0.2-2.3-0.8-5-3l-1.5,1.5l2.8,2.5L-95.7-1.5 M87.3-38.3l0.3,3
				c2.9,0.9,5.1,2.5,6.7,4.9l2.7-0.4l-2-3.5L87.3-38.3 M77.6-39.8h0.8l2.5-2l-11.8-5.3l-19.3-4.5l-24.7-1.5l-33.1-0.2l0.1,4h0.5
				l3-0.1h0.9l3-0.2h0.6h1h1.4l6.1,0.2h1l6.4,0.1h1.1l6.4,0.2h1.1l3,0.3h0.2l2.8,0.4h0.5l8,0.8h0.2l5.2,0.5h0.1l3,0.2l18.7,3.5
				L77.6-39.8 M-79.4-42.5l-0.8,0.1l0.7,1.7l-8.5,2.3l-7,3.2l2.1,1.2l6.4-2.7l7.1-2V-42.5 M-72.9-44.5v3.8l9.2-2.3l12-2.2h0.2
				l4.5-0.8h0.1l1.2-0.2h0.3l1.2-0.2h0.3l1.2-0.1h0.2l1.3-0.2h0.2l1.3-0.2h0.2l1.1-0.1h0.4l1.1-0.2h0.2l1.3-0.2h0.2l1.3-0.1h0.2
				l1.3-0.2h0.2l1.2-0.2h0.1l1.4-0.1h0.1l1.4-0.2h0.1l1.4-0.2h0.1l3.5-0.3h0.7l3-0.2h0.8l3-0.1h0.7l0.2-0.2v-4.3l-10.9,0.1
				l-17.1,1.7h-0.5l-0.7,0.2l-14.8,2.3h-0.7l-0.3,0.2h-0.7l-0.3,0.1h-0.4c-3.8,1.1-5.6,2-5.6,2.7L-72.9-44.5 M-37.6-51.5l0.5,2.5
				l-1,0.1l-21.4,2.4l4.5-1.2c-0.7-1.5,0.8-2.4,4.5-2.7L-37.6-51.5 M22.6-52.3l19.9,1.9l7.3,0.1l9.8,1.9L69.8-46l6.2,3.3l-7-2.3
				l-20.2-3.9l-34.5-3L22.6-52.3"/>
			<path fill="#444444" d="M-74.4-2l61.2-7.5v-0.7l-18.3,2.7l-43.4,5L-74.4-2 M-75.4-4.2l21.5-3.2l10.4-0.8l31.8-4l0.3-0.7l-64.1,8
				L-75.4-4.2 M-10.6-12.3l1-0.1v-0.7l-1.4,0.2L-10.6-12.3"/>
			<path fill="#B4B4B4" d="M-74.9-2.5l48.5-6c5.2-0.2,8.1-0.9,8.5-2l-33.3,4.1c-0.6-0.9-3-0.9-7.2,0l-17,3L-74.9-2.5"/>
			<path fill="#8B8B8B" d="M-75.4-4.2v0.8l17-3c4.2-0.9,6.6-0.9,7.2,0l33.3-4.1c-0.4,1.1-3.3,1.8-8.5,2l-48.5,6l43.4-5l18.3-2.7
				l0.7-0.3v-1.2h0.6l0.2-0.5l-31.8,4l-10.4,0.8L-75.4-4.2 M-10.6-12.3l0.8,0.7l0.2-0.8L-10.6-12.3"/>
			<path fill="#42424C" d="M-103.9-4.5l2.7,1.6l5.3,2l-5-2.1l-3-2V-4.5 M-95.1-8l-3.4-1.5l-5.3-3.5l-0.2,2.3l8.4,5.2v-1.9L-95.1-8
				 M96.9-15l2-1.4l0.7-1.5l0.3-0.5l0.3-1l-1.8,3L96.9-15 M88.8-18l0.2,3.1l4.2-2.1l2.8-5.7l-0.3-1.5l0.3-3.5l-4.8-5.2l-1.2-0.6
				C96.5-27.3,96.1-22.1,88.8-18 M102.1-22.3v-0.1l-0.2,0.1H102.1 M-107.1-22.8V-23l0.1-0.2l0.2-0.2v-0.1l0.2-0.2l0.1-0.2V-24
				l0.2-0.2l0.2-0.2l0.1-0.3l0.7-1.2l-0.7,0.4l-1.5,2.3l-0.1,0.5L-107.1-22.8 M102.4-23.2h0.2l0.5-2.5l-1.3-7.7l-6.7-7.5l-8-4.3v3
				l9,4.7l5.3,5.6l0.7,0.9l-0.3,0.5L102.4-23.2 M-112.6-29.8l-3.4,6.9c-0.1,5.9,0.9,9.3,3,10.3l-0.6-0.7l-0.5-6l1.8-3.3l-1-1.3
				c1.4-1.7,2-2.7,1.8-3.2l4.5-3l-0.5-1.8l4.5-3.4l13.4-6l10.3-3l-0.2-3.5h-0.1l-1.5,0.5l-1.7,0.5l-2.2,0.7l-0.5,0.2l-2.6,0.8
				l-0.4,0.2l-12.5,5.6l-2.5,1.7h-0.1l-0.9,0.7l-0.6,0.5l-2.2,1.6l-0.3,0.4l-1.9,1.3l-0.6,0.5l-1.9,2l-0.1,0.3l-0.4,0.5H-112.6
				 M-47.1-46h0.6h-0.5H-47.1 M-45.7-46.2h0.8h-0.5H-45.7 M-43.4-46.3h-0.5h-0.3H-43.4 M-42.7-46.5h0.8h-0.6H-42.7 M-41.2-46.7h0.7
				h-0.5H-41.2 M-39.7-46.8h0.7h-0.5H-39.7 M-72.9-46.3l3.4-1.1l-3.4,0.5V-46.3 M-38.4-47h0.9h-0.5H-38.4 M-36.9-47.2h0.9h-0.7
				H-36.9 M-35.4-47.3h0.9h-0.7H-35.4 M-33.9-47.5h0.7h-0.5H-33.9 M-32.4-47.7h0.7h-0.5H-32.4 M-31.1-47.8h0.8h-0.7H-31.1 M-29.6-48
				h0.8h-0.7H-29.6 M82.1-46.7L80.6-48l-1.5-0.5l-0.5-0.2l-0.5-0.2L77.6-49l-0.5-0.2l-0.5-0.2l-0.5-0.1l-0.5-0.2l-0.5-0.2L74.6-50
				l-0.5-0.2l-0.5-0.2l-0.5-0.1l-0.5-0.2l-0.5-0.2L71.6-51l-3-0.9L68.1-52l-0.3-0.2l-0.8-0.2l-0.8-0.1L63.6-53l-3.5-0.7l-0.8-0.2
				L58.4-54l-0.8-0.2L53.1-55l-0.8-0.2l-0.8-0.2l-0.9-0.1l-0.8-0.2l-0.8-0.2L48.1-56l-3-0.4l-1.1-0.1h-0.5l-1-0.2h-0.7l-0.7-0.2h-1
				L39.6-57l-1.3-0.2l-5.3-0.5l-8.7-0.8L1.3-59l-9.3,0.3v4L5.4-55l27.1,0.6l16.9,1.7l9.3,2.3l11,2l12.5,4L82.1-46.7 M-21.2-48.7h-1
				h-0.7H-21.2 M-19.2-48.8h1.7h-0.9H-19.2 M27.8-48.8h-0.2h-0.5H27.8 M-15.4-49l1,0.1l-0.3-0.1H-15.4 M22.1-49l2.5-0.2h-1.1h-2.2
				L22.1-49 M-6.4-49.3h-1h-0.5H-6.4 M17.1-49.3h-1.1h-2H17.1 M-4.4-49.5h1.7h-0.8H-4.4 M9.6-49.5h-1H6.4H9.6 M-0.6-49.7h3H1.1h-1
				H-0.6 M-26.7-54.2l12.3-0.2l-0.3-1.8L-26.7-54.2"/>
			<path fill="#5858CA" d="M-72.9-21.3l0.9-0.3v-2.7l-0.9,0.2V-21.3 M65.1-25.3l-0.7-10.8L63.6-38l0.7,12.5L65.1-25.3 M-72.9-30.7
				l0.9-0.2v-5.6l-0.9,0.6V-30.7"/>
			<path fill="#6363DF" d="M-72.1-21.7l1.5-0.3l0.1-2.5l-1.6,0.1V-21.7 M61.4-26.3l2.8,0.9L63.6-38l-1-2.5c-2.9-2.9-4.6-4.4-5.2-4.4
				l-12.9-2.3h-0.1l-5.2-0.5h-0.2l-2.3-0.2l1.7,3.7L39.1-30l11.9,1.6l7.7,1.4l0.7-2.9C61.4-28.5,62.1-27.3,61.4-26.3 M-72.1-30.8
				l3-0.3l1.6-9.5l-3.1,2l-1.5,2.2V-30.8"/>
			<path fill="#6A6AEC" d="M-65.1-23.5l0.3-1.9l-5.7,0.9l-0.1,2.5L-65.1-23.5 M61.4-26.3c0.7-1-0.1-2.2-2.2-3.5L58.6-27L61.4-26.3
				 M39.1-30l-0.6-14.2l-1.7-3.7l-2.8-0.3h-1.4l-0.3-0.2l-1.2-0.1h-0.5h-1.3l-0.5-0.2l-1-0.2h-0.7h-1L25.3-49l-0.7-0.2L22.1-49
				l0.4,10l7.1,0.5l3.4,8L39.1-30 M-69.1-31.2l5.8-0.8l3.2-11.4l-5,1l-2.4,1.7L-69.1-31.2"/>
			<path fill="#0E0E0E" d="M-72.1-24.3l1.6-0.1l5.7-0.9l50.5-7l0.3-1.5l-60.6,8.4l1.6,1.3L-72.1-24.3 M-75.4-29.5v2.5l62.4-8.9
				l1-0.5l-0.2-1l0.7-0.1l0.3,1l0.7,0.3h0.1h0.2l-0.2-2.5l-1.1,1h-0.9l-2-1.5L-63.2-32l-5.8,0.8l-3,0.3l-0.9,0.2l-2.3,0.8
				L-75.4-29.5"/>
			<path fill="#7575FD" d="M-64.7-25.3l-0.3,1.9l9.1-2.4l8-1.3l12.5-2l21.5-1.8l-0.3-1.4L-64.7-25.3 M23.9-31.3l9,0.9l-3.4-8
				L22.4-39l-0.4-10l-0.8-0.2l-4.2-0.2h-3.1l-4.4-0.1H6.4l-4-0.2h-3l-2.2,0.2h-1.7l-2,0.1h-1.5l0.5,18l6.5-0.3L23.9-31.3
				 M-14.4-39.2v-9.7l-1-0.1l-2.1,0.1h-1.7l-2,0.2h-1.7l-1.5,0.2l-0.6,0.1h-1.4h-0.1l-1.4,0.2h-0.1l-0.7,0.2h-0.8l-0.7,0.1h-0.8
				l-0.7,0.2h-0.7l-0.8,0.2h-0.7l-0.6,0.1h-0.9l-0.6,0.2h-0.9l-0.6,0.2h-0.9l-0.6,0.1h-0.7l-0.8,0.2h-0.7l-0.7,0.2h-0.8l-0.7,0.1
				h-0.8l-0.7,0.2h-0.8l-0.7,0.2h-0.6l-0.5,0.1l-1,0.2l-0.5,0.2h-0.5l-0.4,0.1h-0.5l-0.3,0.2h-0.8h-0.2l-0.2,0.2l-0.8,0.1l-1,0.2
				l-0.3,0.2h-0.5l-0.4,0.1l-0.6,0.2h-0.7l-0.3,0.2h-0.5l-0.4,0.1l-2.6,0.5L-63.2-32L-14.4-39.2"/>
			<path fill="#BABABA" d="M-74.6-25.5l48.5-6.9l12.3-2.1l0.5-0.7l-6.2,0.5l-56,7.7l0.2,0.8l52.5-7.5l1.3,0.2l-53.6,7.6L-74.6-25.5"
				/>
			<path fill="#F7F7F7" d="M-75.2-26.2l0.2,0.3l53.6-7.6l-1.3-0.2L-75.2-26.2"/>
			<path fill="#777777" d="M-13.9-33.8l0.2-0.6l-12.3,2.1l-48.5,6.9L-13.9-33.8 M-19.4-34.7l6.2-0.5l0.2-0.7L-75.4-27L-19.4-34.7"/>
			<path fill="#090909" d="M-69.6-47.5l8.6-1.4h0.4l0.3-0.1h0.7l0.3-0.2h0.7l14.8-2.3l0.7-0.2h0.5l13.6-2.2l0.5-0.1h0.7l0.7-0.2h0.3
				l12-2l0.2-1.3l-59.9,9.3l1.5,1.2L-69.6-47.5 M-72.9-53.5l-2.3,0.8l-0.2,2.8l61.9-10l1.1-1.5l0.7,1.2h0.5h0.2h0.3l-0.3-2.2
				l-1.9,0.9l-0.6-0.9l-1.5-0.5l-1.7,0.4l-8.2,1.3l-16.5,2.7l-1.8,0.3h-0.7L-72.9-53.5"/>
			<path fill="#6A6A6A" d="M-74.4-48.2l59.9-9.3l0.3-0.5l-60.7,9.3L-74.4-48.2 M-75.4-49.8l0.2,0.4l61.5-9.9l0.2-0.5L-75.4-49.8"/>
			<path fill="#F1F1FD" d="M-37.6-51.5l-12.9,1.1c-3.7,0.2-5.2,1.1-4.5,2.7l-4.5,1.2l21.4-2.4l1-0.1L-37.6-51.5 M22.6-52.3l-8.3,0.5
				l34.5,3L68.9-45l7,2.3L69.8-46l-10.2-2.5l-9.8-1.9l-7.3-0.1L22.6-52.3"/>
			<path fill="#B5B5B5" d="M-14.2-58l-0.2-0.4l-60.5,9.7L-14.2-58 M-13.9-58.8l0.2-0.5l-61.5,9.9L-13.9-58.8"/>
			<path fill="#3A3A8F" d="M-43.9-58.2h0.7l1.7-4.3l-1.2,1.1L-43.9-58.2 M32.9-57.7c-2-7-6.2-11.1-12.7-12.3l4,11.5L32.9-57.7
				 M-8.1-58.7L1.3-59l-0.5-1.4l-9,0.2L-8.1-58.7 M-16.7-62.5l1.7-0.4l0.1-9.6l-0.5,0.1L-16.7-62.5 M-8.6-73l0.3,8.3l0.5-8.3H-8.6"
				/>
			<path fill="#4444A2" d="M-43.2-58.2l1.8-0.3l2.7-6l-0.2-0.5l-2.6,2.5L-43.2-58.2 M-24.9-61.2l8.2-1.3l1.3-9.9l-7.1,1.2
				L-24.9-61.2"/>
			<path fill="#333381" d="M24.3-58.5l-4-11.5l-4.2-1.4l-6.5-1.1l-7.5-0.7L-7.7-73l-0.5,8.3v4.5l9-0.2L1.3-59L24.3-58.5"/>
			<path fill="#4B4BB0" d="M-24.9-61.2l2.4-10l-9.5,2.5l-6.9,3.7l0.2,0.5l-2.7,6L-24.9-61.2"/>
			<path fill="#050505" d="M-72.9-69.3l57.9-10v-2l-59.2,10.9L-72.9-69.3 M-72.9-75.8l-2,0.5l-0.5,0.7v2.3l61-10.6l1-1v-1l-1.8-1
				L-72.9-75.8 M-11.9-83.7h0.2l0.3-0.2v-1.3l-0.3-0.7l-1.2,1l0.5,1.2H-11.9"/>
			<path fill="#626262" d="M-74.2-70.5l59.2-10.9l-59.5,10.5L-74.2-70.5 M-75.2-72l60.8-11l-61,10.6L-75.2-72"/>
			<path fill="#B0B0B0" d="M-74.6-70.8l59.5-10.5l0.3-0.5l-60.3,10.7L-74.6-70.8 M-75.2-71.5l60.8-10.7V-83l-60.8,11V-71.5"/>
		</g>
	</symbol>
</defs>
<use xlink:href="#新符号"  width="243.9" height="255.7" x="-121.9" y="-127.8" transform="matrix(1 0 0 -1 121.9248 127.8252)"/>
</svg>
